<svg xmlns="http://www.w3.org/2000/svg" viewBox="0 0 856.1 158.2"><defs><filter id="Shadow_2"><feGaussianBlur stdDeviation="2.5" in="SourceAlpha"/><feOffset result="offsetblur" dy="2"/><feFlood/><feComposite operator="in" in="offsetblur"/></filter><filter id="Shadow_10"><feGaussianBlur stdDeviation="2.5" in="SourceGraphic"/><feOffset result="offsetblur" dy="2"/><feFlood flood-color="#71FC53"/><feComposite operator="in" in="offsetblur"/></filter></defs><g id="text1" fill="#fff"><g filter="url(#Shadow_2)"><g><path d="M427 129.7a1 1 0 0 1 .7.2 1.2 1.2 0 0 1 .3.8 8.7 8.7 0 0 1-.5 1.8 4 4 0 0 1-.2.8 1.2 1.2 0 0 1-.7.5h-1.2q-1.6.6-2 .6a4 4 0 0 1-.7 0 3 3 0 0 1-1.6 0 1 1 0 0 1-.3-1l.4-3q.3-.6 1-.6h2zM441.7 117a1.8 1.8 0 0 1 .7.3l1.2.4a2 2 0 0 1 .8.8 1.5 1.5 0 0 1 .3.7l-.7 3.3q-1 4-1.3 4.6a2.5 2.5 0 0 0-.2.8h.2a2 2 0 0 1 .4 0 6 6 0 0 1 1.8.4 1.4 1.4 0 0 0 .3 0 .2.2 0 0 0 .3 0 5 5 0 0 0 .2-.8l1-3.8.8-3a10.3 10.3 0 0 0 .4-1.4q.2-1 1-1a2 2 0 0 1 1 .3 5 5 0 0 1 .8 1l.8.6a1.4 1.4 0 0 1 .5 1 2.6 2.6 0 0 1 0 .7q-.2.2-.8 3 0 1-1 4l-1.4 6-1 4.2a2 2 0 0 1-.3 1 1 1 0 0 1-1 .3 2.8 2.8 0 0 1-.6 0 8 8 0 0 1-1-.5l-.5-.3q-1-.4-1-1t.6-4q0-.7.5-2.2a1.3 1.3 0 0 0 0-.3c0-.2 0-.3-.4-.3h-2.3v.2q-.2 0-.6 2l-.7 4v1a1 1 0 0 1-.2.5 1 1 0 0 1-1 .4 2.8 2.8 0 0 1-1.3-.6l-1.2-.6a1 1 0 0 1-.5-.5 2.8 2.8 0 0 1 0-1 19.2 19.2 0 0 1 .3-3.2l.6-2.7a1.5 1.5 0 0 0 0-.4 2.2 2.2 0 0 0-.5-1 4.6 4.6 0 0 1-.4-.6q0-.4 1.3-.8a.8.8 0 0 0 .3 0v-.5l1.5-5.3 1.6-5a1 1 0 0 1 1-.6zM454 125.8a1.7 1.7 0 0 1 .8.4l1 .7a1.2 1.2 0 0 1 .7.4 2 2 0 0 1 0 .7 9.6 9.6 0 0 1-.2 2l-1 4.8q-.5 1.7-.8 3.7 0 1-.8 1a1.7 1.7 0 0 1-.7 0l-1-.6a3 3 0 0 1-1-.7 1.3 1.3 0 0 1-.2-.8 19.3 19.3 0 0 1 .5-3.4l1.3-5.2a12.8 12.8 0 0 0 .5-1.8q.3-1.2 1-1.2zm2-6.3a1.8 1.8 0 0 1 1 .4 1.4 1.4 0 0 1 .6 1v.3a1.5 1.5 0 0 0 0 .3 2 2 0 0 1 0 .4v.8l.2.4a.5.5 0 0 1 0 .2l-.5 1a2.6 2.6 0 0 1-.4.6 1 1 0 0 1-.8.3 3.5 3.5 0 0 1-.6-.2 1.6 1.6 0 0 0-.5 0h-.3a.7.7 0 0 1-.7-.5 4.5 4.5 0 0 1-.3-1.8 4 4 0 0 1 .5-2l.2-.4a1.2 1.2 0 0 1 .3-.2 3.5 3.5 0 0 0 .5-.3 1 1 0 0 1 .7-.2zM460.2 138a3 3 0 0 1-.5-1.5.8.8 0 0 0 0-.3.6.6 0 0 0-.3 0 2.5 2.5 0 0 1-1.7-1.4 4.5 4.5 0 0 1-.5-2.2 9.4 9.4 0 0 1 1.7-5 7.2 7.2 0 0 1 1-1.5 1.3 1.3 0 0 1 .8-.2 4.5 4.5 0 0 1 1.6.3 1 1 0 0 0 .3.2q.2 0 .8-.8a6 6 0 0 1 .7-.7 9.3 9.3 0 0 1 1-.7 2 2 0 0 1 1-.4 1 1 0 0 1 .7.4l.2.3a1 1 0 0 1 .3.7.8.8 0 0 1-.3.7l-.4.3-.3.3-.4.3a.8.8 0 0 0 .3.3 1.5 1.5 0 0 1 .2.4 4.6 4.6 0 0 0 .3 1 3 3 0 0 1 .4 1.2 13.2 13.2 0 0 1-1 4 3.5 3.5 0 0 1-2.4 2.6c-.2 0-.3 0-.3.3a3 3 0 0 0 0 .6.8.8 0 0 0 .5.6 1.4 1.4 0 0 1 .5.4 16 16 0 0 1 1 1.7 4.7 4.7 0 0 1 .7 2.2 3.2 3.2 0 0 1-1.2 2.5 7.3 7.3 0 0 1-3.3 1.3 12.8 12.8 0 0 1-2.5.3 4.7 4.7 0 0 1-1.5 0 2.6 2.6 0 0 1-.8-.8l-.8-.6a3.5 3.5 0 0 1-1-1 2.2 2.2 0 0 1-.2-1q0-2 2.7-3.7a7.5 7.5 0 0 1 2.5-1zm1.4 2.4a2.5 2.5 0 0 0-1.3.7l-.6.6-.3.4a2.5 2.5 0 0 0-.5.8q0 .4.8.4a4.7 4.7 0 0 0 2-.5 1.2 1.2 0 0 0 .8-1 1.3 1.3 0 0 0-.3-1q-.4-.3-.7-.3zm1-12q-.6 0-1.3 2.4a9.2 9.2 0 0 0-.5 2.4 2 2 0 0 0 .3.7c.2.2.3.4.5.4s.3 0 .5-.4a2.7 2.7 0 0 0 .5-.7 5.8 5.8 0 0 0 .6-1.7 12.8 12.8 0 0 0 .4-2 1 1 0 0 0-.2-.7q-.4-.6-.7-.6zM473 127a3.4 3.4 0 0 1 2.2-1 1.2 1.2 0 0 1 1 .2l.6.7.8.8a1.2 1.2 0 0 1 .3.3 2.8 2.8 0 0 1 0 1.3q0 2-1.8 7.4a11.6 11.6 0 0 0-.6 2 3.6 3.6 0 0 1-.5 1.4.7.7 0 0 1-.4.3 2.7 2.7 0 0 1-1-.2 3.4 3.4 0 0 1-.8-.4q-.7-.5-.7-1a2.6 2.6 0 0 1 .4-.7l.3-1.5q.5-2.4 1.7-6.5a1 1 0 0 0 0-.3q0-.3-.2-.3-.4 0-1 1a14.2 14.2 0 0 0-1 2.5 35.4 35.4 0 0 0-1.3 4.7q-.4 1.2-1 1.2a4 4 0 0 1-1.8-1 1.4 1.4 0 0 1-.8-1 27 27 0 0 1 .5-3q0-1 1.6-7.5 1.4-5.5 1.6-7.2a2.5 2.5 0 0 1 .5-1.2 1 1 0 0 1 .7-.3 3 3 0 0 1 1 .2 6.6 6.6 0 0 1 1 .4q.7.5.7 1a13 13 0 0 1-.2 1.4q-.5 2.5-.7 3.2t-1 3zM491.7 117.8a3.5 3.5 0 0 1 1 .2h.4a3.4 3.4 0 0 1 1.3.5 1.7 1.7 0 0 1 1 1.5 2.8 2.8 0 0 1-.4 1 11.3 11.3 0 0 0-1 2.4l-1.7 8a73.2 73.2 0 0 1-1.8 7.3q-.4 1-1.2 1a3.2 3.2 0 0 1-1.2-.4 3.4 3.4 0 0 0-.7-.3 5.4 5.4 0 0 1-1-.4.6.6 0 0 1-.2-.5 3.8 3.8 0 0 1 .4-1 9 9 0 0 0 .3-1.3l1.6-7.5 2-8 .4-1.6a1 1 0 0 1 .5-.8 1.4 1.4 0 0 1 .5 0zM499 128l.6-1a2.4 2.4 0 0 1 1.7-.7 1.6 1.6 0 0 1 1.4.6 7.4 7.4 0 0 1 .6 1h.3q1.6-2 2.7-2a3.6 3.6 0 0 1 .8 0 6 6 0 0 1 1 .5 2.5 2.5 0 0 1 1.3 1.4 3.6 3.6 0 0 1 .3 1.3 42.7 42.7 0 0 1-1.6 7.5 15.7 15.7 0 0 0-.4 1.8q-.3 1.3-1 1.3a3.6 3.6 0 0 1-1.6-.6 1.2 1.2 0 0 1-.8-1 22 22 0 0 1 .8-3.5q.6-2.7 1.6-5.5a2 2 0 0 0 0-.6c0-.3 0-.4-.2-.4q-.6 0-2 2.8a27.6 27.6 0 0 0-1.2 4 21.6 21.6 0 0 0-.5 2.3 2.6 2.6 0 0 1-.2 1 .8.8 0 0 1-.7.3 7.3 7.3 0 0 1-1.8-.6q-.7-.3-.7-.8a30.4 30.4 0 0 1 .7-3.5l1-4a1.4 1.4 0 0 0 .2-.5q0-.2-.3-.2-.7 0-1.7 2.2a26.4 26.4 0 0 0-1.6 5.7 11 11 0 0 1-.6 2.3.8.8 0 0 1-.5.3 3.2 3.2 0 0 1-1.7-.5 1.5 1.5 0 0 1-.8-1.4 52.3 52.3 0 0 1 1.2-7.3 29.6 29.6 0 0 0 .7-3.7 2.8 2.8 0 0 1 0-1 1 1 0 0 1 1-.6 6.3 6.3 0 0 1 1 0 4.4 4.4 0 0 1 .7.3.8.8 0 0 1 .5.7 5.5 5.5 0 0 1-.2.8zM516 126.2a2 2 0 0 1 1.3-.4 7.5 7.5 0 0 1 2.4 1q1.2.7 1.2 3a10.5 10.5 0 0 1-1.3 4.5 12 12 0 0 1-3.2 4.2 3 3 0 0 1-1.7.8 1.8 1.8 0 0 1-1-.5.3.3 0 0 0-.2 0q-.2 0-.3.5a33 33 0 0 1-1 3.8l-.3 2q0 .6-.4.8a1.4 1.4 0 0 1-.7.3 2.2 2.2 0 0 1-1.6-.6q-.8-.7-.8-1a33 33 0 0 1 1.4-6.7l1.5-5.6v-.5a2.2 2.2 0 0 1-.5.4 1.6 1.6 0 0 1-.6.2q-.4 0-.4-.5a3 3 0 0 1 1.7-3 1 1 0 0 0 .6-.4l.2-.8a16.5 16.5 0 0 0 .6-2.5q.2-1 1-1a2 2 0 0 1 1 .3 6.8 6.8 0 0 0 .5.4 2 2 0 0 1 .6.3.6.6 0 0 1 .2.4v.7zm1.2 2.4q-.4 0-1.2 1a7 7 0 0 0-.8 2.3l-.7 2.5a4.3 4.3 0 0 0-.2 1h.2q.6 0 2-2.7a13 13 0 0 0 .8-2.7 5.6 5.6 0 0 0 .2-1c0-.3 0-.4-.3-.4zM527 125.3a1.6 1.6 0 0 1 1 .2l1 .6a14.2 14.2 0 0 1 1.6 1 3 3 0 0 1 1 2.4 17.4 17.4 0 0 1-1 4.2q-1.3 4.7-1.4 5.6a2 2 0 0 1-.3 1 1 1 0 0 1-1 .3 1.6 1.6 0 0 1-1.4-.8 2 2 0 0 1-.3-1 3.4 3.4 0 0 0-.7 0 4.4 4.4 0 0 1-1.6.4 2.4 2.4 0 0 1-1.7-.5 3.7 3.7 0 0 1-1-1.5 3.3 3.3 0 0 1-.2-1.2 3 3 0 0 1 1.3-2.3 7 7 0 0 1 4.6-1.5.7.7 0 0 0 .3 0 1 1 0 0 0 .2-.5l.2-.7a6.2 6.2 0 0 0 .2-1.2.6.6 0 0 0-.3-.4.4.4 0 0 0-.3 0 2.7 2.7 0 0 0-1.5.7q-.3 0-1.5 1.4a1.4 1.4 0 0 1-1 .5q-.3 0-.8-.7a2 2 0 0 1-.5-1q0-.7 1.6-2.6 2-2.4 3.3-2.4zm-.4 9.3a2.5 2.5 0 0 0-1.2.4q-1.2.7-1.2 1t1.2.6a3.8 3.8 0 0 0 .7 0 .7.7 0 0 0 .5-.3 1.2 1.2 0 0 0 .2-.5 3.3 3.3 0 0 1 0-.4 1.6 1.6 0 0 0 .2-.5q0-.4-.4-.4zM538 125.6a2.4 2.4 0 0 1 1.4.6 12.3 12.3 0 0 0 1.2.8 2.7 2.7 0 0 1 1 .8 2.3 2.3 0 0 1 0 1.2 7.8 7.8 0 0 1-.3 2.6q-.4 1-1.2 1a2.2 2.2 0 0 1-1.4-.6 1 1 0 0 1-.3-.8 4 4 0 0 1 0-.7 4 4 0 0 1 .3-.8.7.7 0 0 0 0-.3v-.3s-.8.8-1.4 2q-2 4-2 5 0 .6.5.6a2.8 2.8 0 0 0 1-.5 14.6 14.6 0 0 0 1.7-1 14.7 14.7 0 0 1 1.2-1 1 1 0 0 1 .6-.2q.5 0 .5.7a5 5 0 0 1-1 3.4 7.6 7.6 0 0 1-2 1.4 3.5 3.5 0 0 1-1.7.6 2.5 2.5 0 0 1-1.6-.6 12.7 12.7 0 0 1-1.4-1.5 4 4 0 0 1-1-2.7 10.2 10.2 0 0 1 1-4 14.7 14.7 0 0 1 2.4-4 4 4 0 0 1 2.7-1.7zM544 130.7h-.4a.8.8 0 0 1-.3 0 .4.4 0 0 1-.4-.2 4.4 4.4 0 0 1-.3-.8 8 8 0 0 1 0-1 .8.8 0 0 1 .5-.6 7.4 7.4 0 0 1 1 0h.7v-.4a10.2 10.2 0 0 1 .3-1.5l.6-2.6a3.3 3.3 0 0 0 0-.5q.2-.8.7-.8a2.4 2.4 0 0 1 .6 0l.8.3a2 2 0 0 1 1 .5 1.2 1.2 0 0 1 .5.8 8.5 8.5 0 0 1-.4 1.8l-.4 2h.4a1 1 0 0 1 .6.3.6.6 0 0 1 .3.3 1.4 1.4 0 0 1 0 .3 2.5 2.5 0 0 1 0 .4 6 6 0 0 1-.3 1 .8.8 0 0 1-.7.5l-1 .2a.6.6 0 0 0-.2 0v.4a20 20 0 0 1-.4 2.3q0 .4-1 3.7l-.4 1.3a2.6 2.6 0 0 1-.3 1 .7.7 0 0 1-.6.2 3.7 3.7 0 0 1-1.5-.6q-1-.6-1-1.3a5 5 0 0 1 .2-1q0-.6.4-2a31.3 31.3 0 0 1 1-3.4 3.5 3.5 0 0 0 0-.5zM566 130.4q-1.7 4-3 6.3a13.7 13.7 0 0 0-1 2 1.8 1.8 0 0 1-.4.6.8.8 0 0 1-.5.2 4.8 4.8 0 0 1-2.2-1 1.2 1.2 0 0 1-.6-.8v-1.4-1.2a59.2 59.2 0 0 1 .4-6q0-1 .8-6l.5-4a1.6 1.6 0 0 1 0-.7q.3-.4 1.3-.4a5.4 5.4 0 0 1 2 .4 2.6 2.6 0 0 1 .6.2.5.5 0 0 1 0 .5 8.4 8.4 0 0 1 0 1.3 35.4 35.4 0 0 0-.8 4.2l-.8 5.6q1.4-4 2.7-6.6a10.3 10.3 0 0 0 .8-2 .8.8 0 0 1 .5-.7 3.2 3.2 0 0 1 1-.2 3.4 3.4 0 0 1 1 .3l.6.2q.4 0 .5.3a1.8 1.8 0 0 1 0 .7v3q-.2 2.6-.2 5.3l.8-3 1.2-3 1.4-3.7.7-1.8a.8.8 0 0 1 .6-.3 1.5 1.5 0 0 1 1 .5 9.7 9.7 0 0 0 1 1 1 1 0 0 1 .5.8 28.4 28.4 0 0 1-1.5 5.2l-2 5.5-2 5.5a9 9 0 0 0-.6 1.5.7.7 0 0 1-.8.7 5.2 5.2 0 0 1-1.8-.6 6.5 6.5 0 0 1-1.4-.8 5.6 5.6 0 0 1-.4-2.6v-4.8zM579.6 125.5a1.6 1.6 0 0 1 .8.2l1 .6 1.4.8a2 2 0 0 1 .4.6 3 3 0 0 1 .6 1.8 6 6 0 0 1-1 3.4 4 4 0 0 1-1.2 1 2.8 2.8 0 0 1-1.5.6 3.8 3.8 0 0 1-2-.7c-.2 0-.3.2-.5.7a6.2 6.2 0 0 0 0 1.4 1 1 0 0 0 0 .6.7.7 0 0 0 .6.4 3.2 3.2 0 0 0 1.4-.6l1.3-1a1.4 1.4 0 0 1 .7-.2 2.3 2.3 0 0 1 .7.3l.4.2a.6.6 0 0 1 .5.6q0 .7-1.7 2.3a4.6 4.6 0 0 1-3.2 1.6 2.2 2.2 0 0 1-1.2-.6 11 11 0 0 1-.8-.8 6.7 6.7 0 0 1-1.2-1 4.6 4.6 0 0 1-.7-2.8 11.7 11.7 0 0 1 2-5.8q2-3.5 3.6-3.5zm.7 3.4q-.4 0-1 .7a7.8 7.8 0 0 0-.7 1.7s0 .3.3.4a1 1 0 0 0 .5.2q.4 0 .8-.8a4 4 0 0 0 .5-1.6c0-.4-.2-.7-.5-.7zM589.8 127.8l.8-.8a2 2 0 0 1 1.3-.6 4.3 4.3 0 0 1 2 1q1 .8 1 3a14.6 14.6 0 0 1-1.6 6.6 6.2 6.2 0 0 1-1.6 2 3.2 3.2 0 0 1-2 .8 3.5 3.5 0 0 1-1.6-.5 5.7 5.7 0 0 0-1-.4l-1-.3a1.4 1.4 0 0 1-1-1 7 7 0 0 1-.4-2.2 28 28 0 0 1 .6-4.8l1-5q1-4.3 1-5l.2-1.4q0-1 .7-1a1.6 1.6 0 0 1 .5 0 15 15 0 0 0 1.7.5 2.2 2.2 0 0 1 1 .5.7.7 0 0 1 0 .5l-.4 3-.5 2.5-.7 2.5zm1.4 2q-.2 0-.6.4a6.4 6.4 0 0 0-.7 1 12 12 0 0 0-1.4 4 6.6 6.6 0 0 0 0 1 1.5 1.5 0 0 0 0 .6c0 .3.2.4.4.4q1 0 1.7-2.7a16 16 0 0 0 .8-4.2c0-.4 0-.5-.4-.6zM609.6 117.7a9.4 9.4 0 0 1 3 .5 10.2 10.2 0 0 1 3 1.5q2.2 1.7 2.2 5.5a13 13 0 0 1-2.2 7.5 20.3 20.3 0 0 1-2.7 3 22 22 0 0 1-3.4 2.7 7.5 7.5 0 0 1-3.4 1.5 1 1 0 0 1-.7-.4l-.4-.6a2.3 2.3 0 0 0-1-1 1 1 0 0 1-.6-1 30.7 30.7 0 0 1 .7-4.4l2-8q1-3.7 1-4.7a4 4 0 0 1 .3-1 2.7 2.7 0 0 1 .8-.5 3 3 0 0 0 .3-.3 1.4 1.4 0 0 1 1.4-.5zm2 4q-.2 0-.3.3a72.8 72.8 0 0 1-2.7 10.2 22 22 0 0 1-.8 2.3v.2c.2 0 .4 0 .6-.4l1-1a23.2 23.2 0 0 0 3-4.8 9.7 9.7 0 0 0 1-4.2 2.7 2.7 0 0 0-.7-2 1.7 1.7 0 0 0-1-.6zM622.7 125.5a1.6 1.6 0 0 1 .8.2l1 .6 1.3.8a2 2 0 0 1 .5.6 3 3 0 0 1 .6 1.8 6 6 0 0 1-1 3.4 4 4 0 0 1-1.4 1 2.8 2.8 0 0 1-1.4.6 3.8 3.8 0 0 1-2-.7.3.3 0 0 0-.2 0s-.3.2-.4.7a6.2 6.2 0 0 0 0 1.4 1 1 0 0 0 0 .6.7.7 0 0 0 .6.4 3.2 3.2 0 0 0 1.3-.6l1.3-1a1.4 1.4 0 0 1 .7-.2 2.3 2.3 0 0 1 .7.3l.3.2a.6.6 0 0 1 .5.6q0 .7-1.6 2.3a4.6 4.6 0 0 1-3.2 1.6 2.2 2.2 0 0 1-1.3-.6 11 11 0 0 1-1-.8 6.7 6.7 0 0 1-1.2-1 4.6 4.6 0 0 1-.6-2.8 11.7 11.7 0 0 1 1.8-5.8q2-3.5 3.7-3.5zm.7 3.4q-.4 0-1 .7a7.8 7.8 0 0 0-.7 1.7s0 .3.3.4a1 1 0 0 0 .5.2q.5 0 .8-.8a4 4 0 0 0 .6-1.6c0-.4-.3-.7-.6-.7zM628 135a.8.8 0 0 1 .5.3l.7 1s.7.7 1 .7a.5.5 0 0 0 .6-.6 6 6 0 0 0-1.3-2.3 8 8 0 0 1-1-1.7 4.8 4.8 0 0 1-.3-1.7 5 5 0 0 1 1.5-3.7 4.2 4.2 0 0 1 3-1.4 1.6 1.6 0 0 1 1 .4l1.3 1a2 2 0 0 1 .7 2 5.3 5.3 0 0 1-.5 2.3 1.2 1.2 0 0 1-1 .8q-1 0-1.4-.6a3 3 0 0 1-.3-1.2 2 2 0 0 1 .3-1q0-.3-.2-.3-.4 0-.7.5a2.2 2.2 0 0 0-.5 1.2 3.8 3.8 0 0 0 1.3 2.4 9 9 0 0 1 1.4 2 3.3 3.3 0 0 1 .3 1.3 3 3 0 0 1-1.3 2.4 16.6 16.6 0 0 1-1.5 1 2.2 2.2 0 0 1-1 .3 4 4 0 0 1-3-1.5 2.2 2.2 0 0 1-.8-1.3 4.3 4.3 0 0 1 0-1.3 2 2 0 0 1 .4-.8.6.6 0 0 1 .5-.2zM639 125.8a1.7 1.7 0 0 1 1 .4l1 .7a1.2 1.2 0 0 1 .6.4 2 2 0 0 1 .2.7 9.6 9.6 0 0 1-.4 2l-1 4.8q-.5 1.7-.8 3.7 0 1-.8 1a1.7 1.7 0 0 1-.7 0l-.8-.6a3 3 0 0 1-1-.7 1.3 1.3 0 0 1-.3-.8 19.3 19.3 0 0 1 .5-3.4l1.2-5.2a12.8 12.8 0 0 0 .5-1.8q.2-1.2 1-1.2zm2-6.3a1.8 1.8 0 0 1 1 .4 1.4 1.4 0 0 1 .8 1v.3a1.5 1.5 0 0 0 0 .3 2 2 0 0 1 0 .4V123.2a.5.5 0 0 1 0 .2l-.4 1a2.6 2.6 0 0 1-.4.6 1 1 0 0 1-.7.3 3.5 3.5 0 0 1-.6-.2 1.6 1.6 0 0 0-.5 0h-.4a.7.7 0 0 1-.7-.5 4.5 4.5 0 0 1-.2-1.8 4 4 0 0 1 .5-2l.2-.4a1.2 1.2 0 0 1 .3-.2 3.5 3.5 0 0 0 .5-.3 1 1 0 0 1 .7-.2zM645.3 138a3 3 0 0 1-.5-1.5.8.8 0 0 0 0-.3.6.6 0 0 0-.3 0 2.5 2.5 0 0 1-1.7-1.4 4.5 4.5 0 0 1-.5-2.2 9.4 9.4 0 0 1 1.7-5 7.2 7.2 0 0 1 1-1.5 1.3 1.3 0 0 1 1-.2 4.5 4.5 0 0 1 1.5.3 1 1 0 0 0 .3.2q.2 0 .8-.8a6 6 0 0 1 .7-.7 9.3 9.3 0 0 1 1-.7 2 2 0 0 1 1-.4 1 1 0 0 1 .7.4l.3.3a1 1 0 0 1 .3.7.8.8 0 0 1-.3.7l-.4.3-.4.3-.4.3a.8.8 0 0 0 .2.3 1.5 1.5 0 0 1 .2.4 4.6 4.6 0 0 0 .4 1 3 3 0 0 1 .3 1.2 13.2 13.2 0 0 1-1 4 3.5 3.5 0 0 1-2.4 2.6c-.3 0-.4 0-.4.3a3 3 0 0 0 0 .6.8.8 0 0 0 .5.6 1.4 1.4 0 0 1 .6.4 16 16 0 0 1 1 1.7 4.7 4.7 0 0 1 .7 2.2 3.2 3.2 0 0 1-1.2 2.5 7.3 7.3 0 0 1-3.2 1.3 12.8 12.8 0 0 1-2.5.3 4.7 4.7 0 0 1-1.5 0 2.6 2.6 0 0 1-.8-.8l-.7-.6a3.5 3.5 0 0 1-1-1 2.2 2.2 0 0 1-.2-1q0-2 2.8-3.7a7.5 7.5 0 0 1 2.5-1zm1.4 2.4a2.5 2.5 0 0 0-1.3.7l-.6.6-.3.4a2.5 2.5 0 0 0-.5.8q0 .4 1 .4a4.7 4.7 0 0 0 2-.5 1.2 1.2 0 0 0 .7-1 1.3 1.3 0 0 0-.3-1q-.4-.3-.7-.3zm1-12q-.6 0-1.3 2.4a9.2 9.2 0 0 0-.5 2.4 2 2 0 0 0 .2.7c0 .2.2.4.4.4s.3 0 .5-.4a2.7 2.7 0 0 0 .6-.7 5.8 5.8 0 0 0 .6-1.7 12.8 12.8 0 0 0 .3-2 1 1 0 0 0-.2-.7q-.4-.6-.6-.6zM657.6 127.4a10 10 0 0 1 .8-1 2.4 2.4 0 0 1 1.6-.7 4 4 0 0 1 1.3.2 4.2 4.2 0 0 1 1.2.6 2.4 2.4 0 0 1 .7 1 2.7 2.7 0 0 1 .3 1 34.2 34.2 0 0 1-1.4 6.3l-1 4q-.2 1-1 1a3.3 3.3 0 0 1-1.6-.6q-1-.6-1-1l.7-3 .8-2.4 1-3.4q0-.4-.3-.4t-1 .8a9 9 0 0 0-1 2 55.2 55.2 0 0 0-1.6 5.5 5 5 0 0 1-.7 1.5 1 1 0 0 1-.7.3 2.5 2.5 0 0 1-1.5-.7 1.8 1.8 0 0 1-.7-1.4 19.7 19.7 0 0 1 .6-3q1-4 1-4.7l.5-2a2.3 2.3 0 0 1 .4-1 1 1 0 0 1 .7-.4 2.5 2.5 0 0 1 1.4.5 1.3 1.3 0 0 1 .6 1zM685.7 131.8a1.3 1.3 0 0 1 1 .6 2 2 0 0 1 .6 1q0 .3-.4.6-.2 0-1 .6l-.7.6v.2a10 10 0 0 1 1 1.4 3 3 0 0 1 .6 1.4 1.7 1.7 0 0 1-.8 1 1.5 1.5 0 0 1-1 .6 2 2 0 0 1-1-.7l-1-.7a5.3 5.3 0 0 1-.5-.7l-.3-.3-.2.2a13 13 0 0 1-2.5 1.6 6.2 6.2 0 0 1-3 1 4.2 4.2 0 0 1-2.7-1 8.7 8.7 0 0 1-1.5-1.6 3.5 3.5 0 0 1-.7-2q0-3.2 4-5.8c.2 0 .3-.2.3-.3v-.2a4 4 0 0 1-.7-1.3 5.8 5.8 0 0 1-.3-1.7 7 7 0 0 1 2.3-5.3 6.3 6.3 0 0 1 4.5-2 3.6 3.6 0 0 1 2.6.8 13 13 0 0 1 1.4 2 5 5 0 0 1 .8 2.6 5.7 5.7 0 0 1-1.6 3.8 7.2 7.2 0 0 1-1.6 1.4l-1.4 1a.3.3 0 0 0-.2.2 2.3 2.3 0 0 0 .3.4 13.2 13.2 0 0 1 1 1.3q.4.8.6.8a.5.5 0 0 0 .2 0 7.3 7.3 0 0 1 1-.6 2.7 2.7 0 0 1 1-.4zm-7.6.7l-.8.7q-1.6 1.6-1.6 2.5 0 .6.8.6a4 4 0 0 0 2-.8q1.4-.8 1.4-1a6.3 6.3 0 0 0-.7-.8l-.4-.6-.5-.5zm1.6-5a12.6 12.6 0 0 0 1.5-1.5 4.3 4.3 0 0 0 1.8-2.6 1.3 1.3 0 0 0-.3-.8 1 1 0 0 0-.8-.4 1.6 1.6 0 0 0-1 .5 3.5 3.5 0 0 0-.8 1.2 5.5 5.5 0 0 0-.5 2 6.3 6.3 0 0 0 0 1.3zM702.6 117.7a9.4 9.4 0 0 1 3 .5 10.2 10.2 0 0 1 2.8 1.5q2.4 1.7 2.4 5.5a13 13 0 0 1-2.3 7.5 20.3 20.3 0 0 1-2.7 3 22 22 0 0 1-3.3 2.7 7.5 7.5 0 0 1-3.4 1.5 1 1 0 0 1-.6-.4l-.4-.6a2.3 2.3 0 0 0-1-1 1 1 0 0 1-.7-1 30.7 30.7 0 0 1 .7-4.4l2-8 1-4.7a4 4 0 0 1 .2-1 2.7 2.7 0 0 1 .8-.5 3 3 0 0 0 .3-.3 1.4 1.4 0 0 1 1.3-.5zm2 4q-.3 0-.3.3a72.8 72.8 0 0 1-2.8 10.2 22 22 0 0 1-.8 2.3v.2c.3 0 .4 0 .7-.4l1-1a23.2 23.2 0 0 0 3-4.8 9.7 9.7 0 0 0 1-4.2 2.7 2.7 0 0 0-.7-2 1.7 1.7 0 0 0-1-.6zM713.3 125.8a1.7 1.7 0 0 1 .8.4l1.2.7a1.2 1.2 0 0 1 .6.4 2 2 0 0 1 0 .7 9.6 9.6 0 0 1-.3 2q0 .6-1 4.8-.5 1.7-.8 3.7 0 1-.8 1a1.7 1.7 0 0 1-.8 0l-1-.6a3 3 0 0 1-1-.7 1.3 1.3 0 0 1 0-.8 19.3 19.3 0 0 1 .4-3.4q.6-3 1.3-5.2a12.8 12.8 0 0 0 .3-1.8q.2-1.2 1-1.2zm2-6.3a1.8 1.8 0 0 1 1 .4 1.4 1.4 0 0 1 .6 1v.3a1.5 1.5 0 0 0 0 .3 2 2 0 0 1 0 .4V123.2a.5.5 0 0 1 0 .2l-.5 1a2.6 2.6 0 0 1-.4.6 1 1 0 0 1-.5.3 3.5 3.5 0 0 1-.7-.2 1.6 1.6 0 0 0-.5 0h-.3a.7.7 0 0 1-.7-.5 4.5 4.5 0 0 1-.4-1.8 4 4 0 0 1 .4-2l.3-.4a1.2 1.2 0 0 1 .3-.2 3.5 3.5 0 0 0 .4-.3 1 1 0 0 1 .8-.2zM719.4 138a3 3 0 0 1-.4-1.5.8.8 0 0 0 0-.2.6.6 0 0 0-.4 0 2.5 2.5 0 0 1-1.7-1.5 4.5 4.5 0 0 1-.6-2 9.4 9.4 0 0 1 1.7-5.3 7.2 7.2 0 0 1 1.2-1.4 1.3 1.3 0 0 1 .8-.2 4.5 4.5 0 0 1 1.6.4 1 1 0 0 0 .3 0l.7-.7a6 6 0 0 1 .7-.7 9.3 9.3 0 0 1 1-.8 2 2 0 0 1 1-.3 1 1 0 0 1 .7.4l.4.4a1 1 0 0 1 .3.7.8.8 0 0 1-.3.7l-.4.3-.3.3-.4.4a.8.8 0 0 0 .2.2 1.5 1.5 0 0 1 .2.5 4.6 4.6 0 0 0 .3 1 3 3 0 0 1 .4 1 13.2 13.2 0 0 1-1 4.3 3.5 3.5 0 0 1-2.4 2.4c-.2 0-.3.2-.3.3a3 3 0 0 0 0 .7.8.8 0 0 0 .5.5 1.4 1.4 0 0 1 .5.4 16 16 0 0 1 1 1.7 4.7 4.7 0 0 1 .7 2.3 3.2 3.2 0 0 1-1.2 2.6 7.3 7.3 0 0 1-3.3 1.3 12.8 12.8 0 0 1-2.6 0 4.7 4.7 0 0 1-1.5 0 2.6 2.6 0 0 1-1-.7l-.6-.7a3.5 3.5 0 0 1-1-1 2.2 2.2 0 0 1-.3-1q0-2 3-3.7a7.5 7.5 0 0 1 2.4-1zm1.5 2.4a2.5 2.5 0 0 0-1.5.7l-.6.6-.4.4a2.5 2.5 0 0 0-.5.8q0 .4 1 .4a4.7 4.7 0 0 0 2-.5 1.2 1.2 0 0 0 .8-1 1.3 1.3 0 0 0-.3-1l-.6-.3zm.8-12q-.6 0-1.3 2.4a9.2 9.2 0 0 0-.5 2.4 2 2 0 0 0 .3.7c0 .2.3.4.4.4l.5-.4a2.7 2.7 0 0 0 .6-.7 5.8 5.8 0 0 0 .6-1.7 12.8 12.8 0 0 0 .2-2 1 1 0 0 0-.2-.7q-.4-.6-.6-.6zM730 125.8a1.7 1.7 0 0 1 .7.4l1 .7a1.2 1.2 0 0 1 .7.4 2 2 0 0 1 0 .7 9.6 9.6 0 0 1-.2 2l-1.2 4.8q-.4 1.7-.6 3.7-.2 1-1 1a1.7 1.7 0 0 1-.6 0l-1-.6a3 3 0 0 1-1-.7 1.3 1.3 0 0 1 0-.8 19.3 19.3 0 0 1 .4-3.4q.6-3 1.3-5.2a12.8 12.8 0 0 0 .4-1.8q0-1.2 1-1.2zm1.8-6.3a1.8 1.8 0 0 1 1 .4 1.4 1.4 0 0 1 .7 1v.3a1.5 1.5 0 0 0 0 .3 2 2 0 0 1 0 .4V123.2a.5.5 0 0 1 0 .2l-.4 1a2.6 2.6 0 0 1-.3.6 1 1 0 0 1-.6.3 3.5 3.5 0 0 1-.5-.2 1.6 1.6 0 0 0-.5 0h-.4a.7.7 0 0 1-.7-.5 4.5 4.5 0 0 1-.4-1.8 4 4 0 0 1 .5-2l.3-.4a1.2 1.2 0 0 1 .3-.2 3.5 3.5 0 0 0 .4-.3 1 1 0 0 1 .8-.2zM734.3 130.7h-.2a.8.8 0 0 1-.2 0 .4.4 0 0 1-.4-.2 4.4 4.4 0 0 1-.2-.8 8 8 0 0 1 0-1 .8.8 0 0 1 .5-.6 7.4 7.4 0 0 1 1 0h.6c.2 0 .2-.2.2-.4a10.2 10.2 0 0 1 .3-1.5l.6-2.6a3.3 3.3 0 0 0 0-.5q.3-.8.8-.8a2.4 2.4 0 0 1 .6 0l.8.3a2 2 0 0 1 1 .5 1.2 1.2 0 0 1 .3.8 8.5 8.5 0 0 1-.4 1.8l-.6 2h.5a1 1 0 0 1 .6.3.6.6 0 0 1 .3.3 1.4 1.4 0 0 1 0 .3 2.5 2.5 0 0 1 0 .4 6 6 0 0 1 0 1 .8.8 0 0 1-.8.5l-1 .2a.6.6 0 0 0-.2 0v.4a20 20 0 0 1-.5 2.3q0 .4-1 3.7l-.3 1.3a2.6 2.6 0 0 1-.3 1 .7.7 0 0 1-.6.2 3.7 3.7 0 0 1-1.7-.6q-1-.6-1-1.3a5 5 0 0 1 .2-1q0-.6.4-2a31.3 31.3 0 0 1 .8-3.5 3.5 3.5 0 0 0 .2-.5h-.3zM745.5 125.3a1.6 1.6 0 0 1 .8.2l1 .6a14.2 14.2 0 0 1 1.7 1 3 3 0 0 1 1 2.4 17.4 17.4 0 0 1-1 4.2q-1.3 4.7-1.4 5.6a2 2 0 0 1-.3 1 1 1 0 0 1-1 .3 1.6 1.6 0 0 1-1.3-.8 2 2 0 0 1-.3-1h-.2a3.4 3.4 0 0 0-.5 0 4.4 4.4 0 0 1-1.6.4 2.4 2.4 0 0 1-1.7-.5 3.7 3.7 0 0 1-1-1.5 3.3 3.3 0 0 1-.3-1.2 3 3 0 0 1 1.3-2.3 7 7 0 0 1 4.6-1.5.7.7 0 0 0 .4 0 1 1 0 0 0 .2-.5v-.7a6.2 6.2 0 0 0 .3-1.2.6.6 0 0 0-.2-.4.4.4 0 0 0-.2 0 2.7 2.7 0 0 0-1.5.7q-.2 0-1.5 1.4a1.4 1.4 0 0 1-1 .5q-.3 0-.7-.7a2 2 0 0 1-.4-1q0-.7 1.6-2.6 2-2.4 3.3-2.4zm-.5 9.3a2.5 2.5 0 0 0-1.2.4q-1.2.7-1.2 1t1.2.6a3.8 3.8 0 0 0 .7 0 .7.7 0 0 0 .4-.3 1.2 1.2 0 0 0 0-.5 3.3 3.3 0 0 1 .2-.4 1.6 1.6 0 0 0 0-.5q0-.4-.2-.4zM755.3 118.8a3.2 3.2 0 0 1 2 .7 1.5 1.5 0 0 1 .7 1 2 2 0 0 1-.2.7 4 4 0 0 0 0 .6l-.8 2.7-1.5 6.6-1.4 6.2a15.6 15.6 0 0 0-.2 1.5q-.2 1-.8 1a1.7 1.7 0 0 1-.7-.3 4.8 4.8 0 0 0-1-.3 1.6 1.6 0 0 1-.7-.2 1 1 0 0 1-.3-.8 36 36 0 0 1 .7-4q.8-4.5 1.7-7.7l1.6-6.5a1.3 1.3 0 0 1 .3-.8 1 1 0 0 1 .7-.2zM778 125.5q-2 4.4-3.7 7.7l-.6 1.3a3 3 0 0 1-.5.8 1 1 0 0 1-.6.2 3.4 3.4 0 0 1-1.6-.7l-.5-.3a.7.7 0 0 1-.5-.7 6.8 6.8 0 0 1 0-.8q.2-1 .3-7.3-.5 2.5-1 4 0 .8-1 4.5l-.7 2.7a16.7 16.7 0 0 1-.5 1.8.7.7 0 0 1-.5.3 2 2 0 0 1-1-.3 7 7 0 0 1-1.2-1 1.2 1.2 0 0 1-.3-.6 6.3 6.3 0 0 1 .3-1.6l.8-3.4 2-7q1.2-4 1.7-6.3a1.7 1.7 0 0 1 .5-1 1 1 0 0 1 .8-.3 4 4 0 0 1 1.3.4 5 5 0 0 0 1.4.5q1.5.2 1.5 1a2 2 0 0 1 0 .2l-.2 2.2-.3 4.8a71 71 0 0 1 3-6.5l.6-1a2 2 0 0 1 .5-1 1.2 1.2 0 0 1 .7 0 3.8 3.8 0 0 1 1.6.5 10 10 0 0 0 2 .8 1.3 1.3 0 0 1 .8.5 1 1 0 0 1 .2.6 24 24 0 0 1-.6 2.7l-.7 3.7q-.7 3.7-2 8.3a30.8 30.8 0 0 0-.5 3 4.4 4.4 0 0 1-.4 1.6.7.7 0 0 1-.6.3 3.6 3.6 0 0 1-1.4-.6l-.6-.3a2.7 2.7 0 0 1-.7-.3.4.4 0 0 1-.2-.3 2 2 0 0 1 0-.5 13.6 13.6 0 0 0 .5-1.6l1-5.4q1-3.2 1.3-5.5zM788 125.3a1.6 1.6 0 0 1 .8.2l1 .6a14.2 14.2 0 0 1 1.7 1 3 3 0 0 1 1 2.4 17.4 17.4 0 0 1-.8 4.2q-1.5 4.7-1.6 5.6a2 2 0 0 1-.2 1 1 1 0 0 1-.8.3 1.6 1.6 0 0 1-1.5-.8 2 2 0 0 1-.2-1h-.2a3.4 3.4 0 0 0-.5 0 4.4 4.4 0 0 1-1.6.4 2.4 2.4 0 0 1-1.8-.5 3.7 3.7 0 0 1-1-1.5 3.3 3.3 0 0 1-.2-1.2 3 3 0 0 1 1.2-2.3 7 7 0 0 1 4.6-1.5.7.7 0 0 0 .4 0 1 1 0 0 0 .2-.5l.2-.7a6.2 6.2 0 0 0 .2-1.2.6.6 0 0 0-.2-.4.4.4 0 0 0-.3 0 2.7 2.7 0 0 0-1.5.7q-.2 0-1.4 1.4a1.4 1.4 0 0 1-1 .5q-.3 0-.8-.7a2 2 0 0 1-.5-1q0-.7 1.7-2.6 2-2.4 3.3-2.4zm-.5 9.3a2.5 2.5 0 0 0-1.2.4q-1.2.7-1.2 1t1.3.6a3.8 3.8 0 0 0 .7 0 .7.7 0 0 0 .4-.3 1.2 1.2 0 0 0 .2-.5 3.3 3.3 0 0 1 0-.4 1.6 1.6 0 0 0 .2-.5q0-.4-.3-.4zM797 125.6a1.8 1.8 0 0 1 .8.3h.3q.7.3.7.7a3.4 3.4 0 0 1-.4 1 1.7 1.7 0 0 0-.3.7q0 .4.2.4l.5-.5a1.4 1.4 0 0 1 1.3-.8q1.2 0 1.2 1.8a9.3 9.3 0 0 1-.4 2.2 5.7 5.7 0 0 1-.2 1 1.3 1.3 0 0 1-1.2.8 1 1 0 0 1-.8-.4 1.5 1.5 0 0 1-.4-1q0-1-.2-1t-.3.8a21.3 21.3 0 0 1-.5 2.4l-.7 3-.4 1.6q-.2 1-.8 1a4.2 4.2 0 0 1-2-.7 1 1 0 0 1-.5-1 6.6 6.6 0 0 1 0-.7 87.5 87.5 0 0 1 2.2-9 6.2 6.2 0 0 0 .2-1.6.8.8 0 0 1 .3-.6 2.3 2.3 0 0 1 1.5-.4zM805.6 131.2l1.3-2 1.7-3.2a3.8 3.8 0 0 1 .8-1.2.7.7 0 0 1 .5 0q.3-.2.8.4a3.7 3.7 0 0 1 .6.6 2 2 0 0 1 .2 1 4.3 4.3 0 0 1-.2 1 7.4 7.4 0 0 1-.5 1.3l-1.2 2a11.6 11.6 0 0 1-1 1.4.8.8 0 0 0-.2.5 18.5 18.5 0 0 1 1 2l.7 2a13.4 13.4 0 0 1 .4 1.7q0 .4-.6 1a1.2 1.2 0 0 1-.6.2 2 2 0 0 1-1.8-1.2l-.8-1.4q-.5-1-1-1.6a9.5 9.5 0 0 1-.8-1.7 35 35 0 0 1-1 4.7 1 1 0 0 1-1 .7 3.5 3.5 0 0 1-1.8-.7 1.3 1.3 0 0 1-.7-1 27.4 27.4 0 0 1 .8-4.4l1-5 1.3-4.3q1.2-4.2 1.2-4.8a1.8 1.8 0 0 1 .3-1 .8.8 0 0 1 .7-.2 4.6 4.6 0 0 1 2.3 1q.8.4.8 1a7.8 7.8 0 0 1-.4 1.6q-.2.4-.8 2.6t-1 3.7l-1 3.2zM817 125.5a1.6 1.6 0 0 1 .7.2l1 .6 1.3.8a2 2 0 0 1 .5.6 3 3 0 0 1 .6 1.8 6 6 0 0 1-1 3.4 4 4 0 0 1-1.2 1 2.8 2.8 0 0 1-1.4.6 3.8 3.8 0 0 1-2-.7.3.3 0 0 0-.2 0c-.2 0-.3.2-.4.7a6.2 6.2 0 0 0-.2 1.4 1 1 0 0 0 .2.6.7.7 0 0 0 .6.4 3.2 3.2 0 0 0 1.3-.6l1.3-1a1.4 1.4 0 0 1 .7-.2 2.3 2.3 0 0 1 .6.3l.4.2a.6.6 0 0 1 .4.6q0 .7-1.5 2.3a4.6 4.6 0 0 1-3 1.6 2.2 2.2 0 0 1-1.5-.6 11 11 0 0 1-.8-.8 6.7 6.7 0 0 1-1.2-1 4.6 4.6 0 0 1-.6-2.8 11.7 11.7 0 0 1 1.8-5.8q2-3.5 3.7-3.5zm.6 3.4q-.5 0-1 .7a7.8 7.8 0 0 0-.8 1.7l.4.4a1 1 0 0 0 .5.2q.4 0 .8-.8a4 4 0 0 0 .5-1.6c0-.4 0-.7-.4-.7zM823 130.7h-.4a.8.8 0 0 1-.3 0 .4.4 0 0 1-.4-.2 4.4 4.4 0 0 1-.3-.8 8 8 0 0 1 0-1 .8.8 0 0 1 .5-.6 7.4 7.4 0 0 1 1 0h.7v-.4a10.2 10.2 0 0 1 .3-1.5l.6-2.6a3.3 3.3 0 0 0 0-.5q.2-.8.7-.8a2.4 2.4 0 0 1 .6 0l.8.3a2 2 0 0 1 1 .5 1.2 1.2 0 0 1 .5.8 8.5 8.5 0 0 1-.4 1.8l-.4 2h.4a1 1 0 0 1 .6.3.6.6 0 0 1 .3.3 1.4 1.4 0 0 1 0 .3 2.5 2.5 0 0 1 0 .4 6 6 0 0 1-.3 1 .8.8 0 0 1-.7.5l-1 .2a.6.6 0 0 0-.2 0v.4a20 20 0 0 1-.4 2.3q0 .4-1 3.7l-.4 1.3a2.6 2.6 0 0 1-.3 1 .7.7 0 0 1-.6.2 3.7 3.7 0 0 1-1.5-.6q-1-.6-1-1.3a5 5 0 0 1 .2-1q0-.6.4-2a31.3 31.3 0 0 1 1-3.4 3.5 3.5 0 0 0 0-.5zM831.3 125.8a1.7 1.7 0 0 1 1 .4l1 .7a1.2 1.2 0 0 1 .6.4 2 2 0 0 1 0 .7 9.6 9.6 0 0 1-.4 2q0 .6-1 4.8-.5 1.7-.8 3.7 0 1-.8 1a1.7 1.7 0 0 1-.7 0l-1-.6a3 3 0 0 1-1-.7 1.3 1.3 0 0 1-.2-.8 19.3 19.3 0 0 1 .7-3.4q.6-3 1.3-5.2a12.8 12.8 0 0 0 .4-1.8q.2-1.2 1-1.2zm2-6.3a1.8 1.8 0 0 1 1 .4 1.4 1.4 0 0 1 .7 1v.3a1.5 1.5 0 0 0 0 .3 2 2 0 0 1 0 .4V123.2a.5.5 0 0 1 0 .2l-.4 1a2.6 2.6 0 0 1-.4.6 1 1 0 0 1-.6.3 3.5 3.5 0 0 1-.7-.2 1.6 1.6 0 0 0-.6 0h-.4a.7.7 0 0 1-.6-.5 4.5 4.5 0 0 1-.4-1.8 4 4 0 0 1 .5-2l.3-.4a1.2 1.2 0 0 1 .2-.2 3.5 3.5 0 0 0 .5-.3 1 1 0 0 1 .8-.2zM839 127.4a10 10 0 0 1 1-1 2.4 2.4 0 0 1 1.5-.7 4 4 0 0 1 1.3.2 4.2 4.2 0 0 1 1.2.6 2.4 2.4 0 0 1 .7 1 2.7 2.7 0 0 1 .3 1 34.2 34.2 0 0 1-1.4 6.3q-.8 2.5-1 4-.3 1-1 1a3.3 3.3 0 0 1-1.7-.6q-1-.6-1-1l.6-3 .7-2.4 1-3.4q0-.4-.4-.4t-1 .8a9 9 0 0 0-1 2 55.2 55.2 0 0 0-1.7 5.5 5 5 0 0 1-.5 1.5 1 1 0 0 1-.7.3 2.5 2.5 0 0 1-1.5-.7 1.8 1.8 0 0 1-.8-1.4 19.7 19.7 0 0 1 .7-3q1-4 1-4.7l.6-2a2.3 2.3 0 0 1 .4-1 1 1 0 0 1 .8-.4 2.5 2.5 0 0 1 1.4.5 1.3 1.3 0 0 1 .4 1zM848.8 138a3 3 0 0 1-.5-1.5.8.8 0 0 0 0-.3.6.6 0 0 0-.4 0 2.5 2.5 0 0 1-1.7-1.4 4.5 4.5 0 0 1-.5-2.2 9.4 9.4 0 0 1 1.6-5 7.2 7.2 0 0 1 1-1.5 1.3 1.3 0 0 1 1-.2 4.5 4.5 0 0 1 1.6.3 1 1 0 0 0 .3.2q.2 0 .7-.8a6 6 0 0 1 .8-.7 9.3 9.3 0 0 1 1-.7 2 2 0 0 1 1-.4 1 1 0 0 1 .7.4l.2.3a1 1 0 0 1 .3.7.8.8 0 0 1-.2.7l-.4.3-.4.3-.3.3a.8.8 0 0 0 0 .3 1.5 1.5 0 0 1 .4.4 4.6 4.6 0 0 0 .4 1 3 3 0 0 1 .3 1.2 13.2 13.2 0 0 1-1 4 3.5 3.5 0 0 1-2.4 2.6c-.2 0-.3 0-.3.3a3 3 0 0 0 0 .6.8.8 0 0 0 .6.6 1.4 1.4 0 0 1 .5.4 16 16 0 0 1 1 1.7 4.7 4.7 0 0 1 .8 2.2 3.2 3.2 0 0 1-1.3 2.5 7.3 7.3 0 0 1-3.3 1.3 12.8 12.8 0 0 1-2.4.3 4.7 4.7 0 0 1-1.5 0 2.6 2.6 0 0 1-1-.8l-.6-.6a3.5 3.5 0 0 1-1-1 2.2 2.2 0 0 1-.2-1q0-2 2.7-3.7a7.5 7.5 0 0 1 2.6-1zm1.4 2.4a2.5 2.5 0 0 0-1.4.7l-.6.6-.2.4a2.5 2.5 0 0 0-.6.8q0 .4 1 .4a4.7 4.7 0 0 0 2-.5 1.2 1.2 0 0 0 .7-1 1.3 1.3 0 0 0-.2-1q-.3-.3-.6-.3zm1-12q-.7 0-1.4 2.4a9.2 9.2 0 0 0-.4 2.4 2 2 0 0 0 .2.7c0 .2.3.4.4.4l.5-.4a2.7 2.7 0 0 0 .6-.7 5.8 5.8 0 0 0 .7-1.7 12.8 12.8 0 0 0 .2-2 1 1 0 0 0-.2-.7q-.4-.6-.7-.6z"/></g><g><path d="M420.8 69.5h12.4l6 19.7 6.2-19.7h12l-13 31h-10.7zM472 79.6l-11.5-1.2a12.8 12.8 0 0 1 1.8-4.7 10.3 10.3 0 0 1 3.5-3 14.7 14.7 0 0 1 4.5-1.4 36.4 36.4 0 0 1 6.2-.5 49.4 49.4 0 0 1 8.6.6 11 11 0 0 1 5.5 2.5 8.8 8.8 0 0 1 2.4 3.6 13.5 13.5 0 0 1 .8 4.6V94a16.5 16.5 0 0 0 .3 3.4 15.4 15.4 0 0 0 1.3 3.2H484a11.3 11.3 0 0 1-.8-1.8 13.5 13.5 0 0 1-.4-2 15.5 15.5 0 0 1-4.6 3.2 19.4 19.4 0 0 1-7.3 1.3q-5.7 0-8.6-2.6a8.2 8.2 0 0 1-3-6.3 8.3 8.3 0 0 1 2.2-6q2-2.2 7.7-3.3 6.7-1.2 8.7-1.8a40.5 40.5 0 0 0 4.2-1.4 4.2 4.2 0 0 0-1-3 4.6 4.6 0 0 0-3-1 8.3 8.3 0 0 0-4.5 1 5 5 0 0 0-1.8 2.8zm10.2 6.2q-2.5 1-5 1.6-3.8 1-4.7 2a3 3 0 0 0 0 4.4 4.2 4.2 0 0 0 3 1 7.4 7.4 0 0 0 3.6-1 6 6 0 0 0 2.5-2.5 8 8 0 0 0 .7-3.6zM514.3 57.6v12h6.6V78h-6.7v11a6 6 0 0 0 .4 2.6 2.2 2.2 0 0 0 2 1 13 13 0 0 0 3.7-.7l1 8.3a38.8 38.8 0 0 1-8.4 1q-4.4 0-6.5-1a7 7 0 0 1-3-3.6q-1-2.3-1-7.5v-11H498v-8.7h4.4v-5.7zM527 57.6h12v8.2h-12zm0 12h12v31h-12zM545 85a15.6 15.6 0 0 1 5-11.6q4.7-4.6 13-4.6 9.2 0 14 5.4a15.7 15.7 0 0 1 4 10.8 15.6 15.6 0 0 1-5 11.7q-4.7 4.6-13 4.6-7.6 0-12.3-3.8A15.3 15.3 0 0 1 545 85zm12 0q0 4.3 1.8 6.3a5.5 5.5 0 0 0 8.4 0q1.7-2 1.7-6.3 0-4-1.8-6a5.2 5.2 0 0 0-4-2 5.4 5.4 0 0 0-4.4 2q-1.8 2-1.8 6zM586.6 69.5h11v5a16.5 16.5 0 0 1 5-4.4A13.3 13.3 0 0 1 609 69a10.2 10.2 0 0 1 7.6 3q2.8 3 2.8 9v19.8h-12v-17q0-3-1-4.3a4 4 0 0 0-3-1.2A4.3 4.3 0 0 0 600 80q-1.5 1.6-1.5 6v14.8h-12zM624.5 92l11.8-1.2a5.8 5.8 0 0 0 2 3 6 6 0 0 0 3.6 1 6 6 0 0 0 3.6-1 2.3 2.3 0 0 0 1-2 2.2 2.2 0 0 0-1.3-2 24.6 24.6 0 0 0-5.2-1.2 53.4 53.4 0 0 1-8.5-2 9 9 0 0 1-4-3 8 8 0 0 1-1.7-5 8.2 8.2 0 0 1 1.8-5.4 10.6 10.6 0 0 1 5-3.3 26.2 26.2 0 0 1 8.3-1.2 29 29 0 0 1 8 .8 10.7 10.7 0 0 1 4.6 2.7 13.8 13.8 0 0 1 3 4.8L645 78.3a4 4 0 0 0-1.5-2.2 6 6 0 0 0-3.4-1 4.8 4.8 0 0 0-3 .8 2 2 0 0 0-.8 1.8 2 2 0 0 0 1 1.7 19 19 0 0 0 5.2 1 35 35 0 0 1 9 2 9.8 9.8 0 0 1 4.3 3.3 8.4 8.4 0 0 1 1.6 5 9.6 9.6 0 0 1-1.7 5.2 11 11 0 0 1-5.2 4 24.6 24.6 0 0 1-9.5 1.5q-8.6 0-12.2-2.4a11 11 0 0 1-4.5-7z"/></g><g><path d="M0 86.4l12.6-.8a9.6 9.6 0 0 0 1.7 4.7 7 7 0 0 0 6 2.6 6.5 6.5 0 0 0 4.2-1.4 4 4 0 0 0 1.6-3 4 4 0 0 0-1.4-3Q23 84 18 83q-9-2-12.6-5.2a10.5 10.5 0 0 1-3.7-8.3 11.3 11.3 0 0 1 2-6.3 12.7 12.7 0 0 1 5.6-4.6Q13 57 20 57q8 0 12.4 3t5 9.7l-12.4.7a6.7 6.7 0 0 0-2-4.2 6.7 6.7 0 0 0-4.5-1.3 5.3 5.3 0 0 0-3.5 1 3 3 0 0 0-1 2.3 2.4 2.4 0 0 0 1 2q.8.7 4.3 1.4 8.7 2 12.5 3.8a13 13 0 0 1 5.4 4.8 12 12 0 0 1 1.8 6.4 13.6 13.6 0 0 1-2.3 7.6 14.3 14.3 0 0 1-6.4 5.3 25.8 25.8 0 0 1-10.4 1.7q-11 0-15.2-4.2A16.6 16.6 0 0 1 0 86.5zM45 57.6h12v22.2l9-10.3h14.6l-11 11 11.7 20H68l-6.4-12.4-4.5 4.5v8H45zM85.3 57.6h12v8.2h-12zm0 12h12v31h-12zM105 112.4v-43h11v4.7a14.8 14.8 0 0 1 4.3-3.8 12.2 12.2 0 0 1 5.8-1.4 11.2 11.2 0 0 1 9.7 4.8 19.8 19.8 0 0 1 3.4 11.8q0 7.7-3.6 11.8a12.2 12.2 0 0 1-9.4 4 13 13 0 0 1-5-.8 12 12 0 0 1-4-2.8v14.8zM117 85q0 3.8 1.5 5.6a5 5 0 0 0 4 1.8 4.3 4.3 0 0 0 3.4-1.7q1.3-1.7 1.3-5.8 0-4-1.5-5.7a4.5 4.5 0 0 0-3.6-1.7 4.8 4.8 0 0 0-3.8 1.7Q117 81 117 85zM145 112.4v-43h11v4.7a14.8 14.8 0 0 1 4.3-3.8 12.2 12.2 0 0 1 5.8-1.4 11.2 11.2 0 0 1 9.8 4.8 19.8 19.8 0 0 1 3.4 11.8q0 7.7-3.7 11.8a12.2 12.2 0 0 1-9.4 4 13 13 0 0 1-5-.8 12 12 0 0 1-4-2.8v14.8zM157 85q0 3.8 1.5 5.6a5 5 0 0 0 4 1.8 4.3 4.3 0 0 0 3.4-1.7q1.3-1.7 1.3-5.8 0-4-1.5-5.7a4.5 4.5 0 0 0-3.6-1.7 4.8 4.8 0 0 0-3.8 1.7Q157 81 157 85zM219.4 88h-24a7.7 7.7 0 0 0 1.7 4.3 5.7 5.7 0 0 0 4.6 2 6.8 6.8 0 0 0 3.3-1 8 8 0 0 0 2-2l11.8 1.2a16.8 16.8 0 0 1-6.5 6.7q-3.8 2-11 2-6 0-9.7-1.7a14.3 14.3 0 0 1-6-5.6 16.7 16.7 0 0 1-2.2-9 15.7 15.7 0 0 1 4.7-11.7q4.7-4.5 13-4.5 6.7 0 10.5 2a13.7 13.7 0 0 1 6 5.8 21.4 21.4 0 0 1 2 10zm-12-5.7q-.4-3.5-2-5a5.8 5.8 0 0 0-8.5.8 8.3 8.3 0 0 0-1.4 4.3zM225 69.5h11.2v5a12.2 12.2 0 0 1 3.3-4.5 7 7 0 0 1 4.3-1.2 12.6 12.6 0 0 1 5.7 1.6L246 79a9.4 9.4 0 0 0-3.5-1 4 4 0 0 0-3.6 2q-2 2.7-2 10.2v10.4h-12zM273 57.6H286v43H273zM295 69.5h11v5a16.5 16.5 0 0 1 5-4.4 13.3 13.3 0 0 1 6.2-1.2 10.2 10.2 0 0 1 7.7 3q2.7 3 2.7 9v19.8H316v-17q0-3-1.2-4.3a4 4 0 0 0-3-1.2 4.3 4.3 0 0 0-3.5 1.8q-1.4 1.6-1.4 6v14.8h-12zM335 69.5h11v5a16.5 16.5 0 0 1 5-4.4 13.3 13.3 0 0 1 6.2-1.2 10.2 10.2 0 0 1 7.8 3q2.8 3 2.8 9v19.8h-12v-17q0-3-1-4.3a4 4 0 0 0-3-1.2 4.3 4.3 0 0 0-3.5 1.8q-1.4 1.6-1.4 6v14.8h-12z"/></g></g><g><g><path d="M427 129.7a1 1 0 0 1 .7.2 1.2 1.2 0 0 1 .3.8 8.7 8.7 0 0 1-.5 1.8 4 4 0 0 1-.2.8 1.2 1.2 0 0 1-.7.5h-1.2q-1.6.6-2 .6a4 4 0 0 1-.7 0 3 3 0 0 1-1.6 0 1 1 0 0 1-.3-1l.4-3q.3-.6 1-.6h2zM441.7 117a1.8 1.8 0 0 1 .7.3l1.2.4a2 2 0 0 1 .8.8 1.5 1.5 0 0 1 .3.7l-.7 3.3q-1 4-1.3 4.6a2.5 2.5 0 0 0-.2.8h.2a2 2 0 0 1 .4 0 6 6 0 0 1 1.8.4 1.4 1.4 0 0 0 .3 0 .2.2 0 0 0 .3 0 5 5 0 0 0 .2-.8l1-3.8.8-3a10.3 10.3 0 0 0 .4-1.4q.2-1 1-1a2 2 0 0 1 1 .3 5 5 0 0 1 .8 1l.8.6a1.4 1.4 0 0 1 .5 1 2.6 2.6 0 0 1 0 .7q-.2.2-.8 3 0 1-1 4l-1.4 6-1 4.2a2 2 0 0 1-.3 1 1 1 0 0 1-1 .3 2.8 2.8 0 0 1-.6 0 8 8 0 0 1-1-.5l-.5-.3q-1-.4-1-1t.6-4q0-.7.5-2.2a1.3 1.3 0 0 0 0-.3c0-.2 0-.3-.4-.3h-2.3v.2q-.2 0-.6 2l-.7 4v1a1 1 0 0 1-.2.5 1 1 0 0 1-1 .4 2.8 2.8 0 0 1-1.3-.6l-1.2-.6a1 1 0 0 1-.5-.5 2.8 2.8 0 0 1 0-1 19.2 19.2 0 0 1 .3-3.2l.6-2.7a1.5 1.5 0 0 0 0-.4 2.2 2.2 0 0 0-.5-1 4.6 4.6 0 0 1-.4-.6q0-.4 1.3-.8a.8.8 0 0 0 .3 0v-.5l1.5-5.3 1.6-5a1 1 0 0 1 1-.6zM454 125.8a1.7 1.7 0 0 1 .8.4l1 .7a1.2 1.2 0 0 1 .7.4 2 2 0 0 1 0 .7 9.6 9.6 0 0 1-.2 2l-1 4.8q-.5 1.7-.8 3.7 0 1-.8 1a1.7 1.7 0 0 1-.7 0l-1-.6a3 3 0 0 1-1-.7 1.3 1.3 0 0 1-.2-.8 19.3 19.3 0 0 1 .5-3.4l1.3-5.2a12.8 12.8 0 0 0 .5-1.8q.3-1.2 1-1.2zm2-6.3a1.8 1.8 0 0 1 1 .4 1.4 1.4 0 0 1 .6 1v.3a1.5 1.5 0 0 0 0 .3 2 2 0 0 1 0 .4v.8l.2.4a.5.5 0 0 1 0 .2l-.5 1a2.6 2.6 0 0 1-.4.6 1 1 0 0 1-.8.3 3.5 3.5 0 0 1-.6-.2 1.6 1.6 0 0 0-.5 0h-.3a.7.7 0 0 1-.7-.5 4.5 4.5 0 0 1-.3-1.8 4 4 0 0 1 .5-2l.2-.4a1.2 1.2 0 0 1 .3-.2 3.5 3.5 0 0 0 .5-.3 1 1 0 0 1 .7-.2zM460.2 138a3 3 0 0 1-.5-1.5.8.8 0 0 0 0-.3.6.6 0 0 0-.3 0 2.5 2.5 0 0 1-1.7-1.4 4.5 4.5 0 0 1-.5-2.2 9.4 9.4 0 0 1 1.7-5 7.2 7.2 0 0 1 1-1.5 1.3 1.3 0 0 1 .8-.2 4.5 4.5 0 0 1 1.6.3 1 1 0 0 0 .3.2q.2 0 .8-.8a6 6 0 0 1 .7-.7 9.3 9.3 0 0 1 1-.7 2 2 0 0 1 1-.4 1 1 0 0 1 .7.4l.2.3a1 1 0 0 1 .3.7.8.8 0 0 1-.3.7l-.4.3-.3.3-.4.3a.8.8 0 0 0 .3.3 1.5 1.5 0 0 1 .2.4 4.6 4.6 0 0 0 .3 1 3 3 0 0 1 .4 1.2 13.2 13.2 0 0 1-1 4 3.5 3.5 0 0 1-2.4 2.6c-.2 0-.3 0-.3.3a3 3 0 0 0 0 .6.8.8 0 0 0 .5.6 1.4 1.4 0 0 1 .5.4 16 16 0 0 1 1 1.7 4.7 4.7 0 0 1 .7 2.2 3.2 3.2 0 0 1-1.2 2.5 7.3 7.3 0 0 1-3.3 1.3 12.8 12.8 0 0 1-2.5.3 4.7 4.7 0 0 1-1.5 0 2.6 2.6 0 0 1-.8-.8l-.8-.6a3.5 3.5 0 0 1-1-1 2.2 2.2 0 0 1-.2-1q0-2 2.7-3.7a7.5 7.5 0 0 1 2.5-1zm1.4 2.4a2.5 2.5 0 0 0-1.3.7l-.6.6-.3.4a2.5 2.5 0 0 0-.5.8q0 .4.8.4a4.7 4.7 0 0 0 2-.5 1.2 1.2 0 0 0 .8-1 1.3 1.3 0 0 0-.3-1q-.4-.3-.7-.3zm1-12q-.6 0-1.3 2.4a9.2 9.2 0 0 0-.5 2.4 2 2 0 0 0 .3.7c.2.2.3.4.5.4s.3 0 .5-.4a2.7 2.7 0 0 0 .5-.7 5.8 5.8 0 0 0 .6-1.7 12.8 12.8 0 0 0 .4-2 1 1 0 0 0-.2-.7q-.4-.6-.7-.6zM473 127a3.4 3.4 0 0 1 2.2-1 1.2 1.2 0 0 1 1 .2l.6.7.8.8a1.2 1.2 0 0 1 .3.3 2.8 2.8 0 0 1 0 1.3q0 2-1.8 7.4a11.6 11.6 0 0 0-.6 2 3.6 3.6 0 0 1-.5 1.4.7.7 0 0 1-.4.3 2.7 2.7 0 0 1-1-.2 3.4 3.4 0 0 1-.8-.4q-.7-.5-.7-1a2.6 2.6 0 0 1 .4-.7l.3-1.5q.5-2.4 1.7-6.5a1 1 0 0 0 0-.3q0-.3-.2-.3-.4 0-1 1a14.2 14.2 0 0 0-1 2.5 35.4 35.4 0 0 0-1.3 4.7q-.4 1.2-1 1.2a4 4 0 0 1-1.8-1 1.4 1.4 0 0 1-.8-1 27 27 0 0 1 .5-3q0-1 1.6-7.5 1.4-5.5 1.6-7.2a2.5 2.5 0 0 1 .5-1.2 1 1 0 0 1 .7-.3 3 3 0 0 1 1 .2 6.6 6.6 0 0 1 1 .4q.7.5.7 1a13 13 0 0 1-.2 1.4q-.5 2.5-.7 3.2t-1 3zM491.7 117.8a3.5 3.5 0 0 1 1 .2h.4a3.4 3.4 0 0 1 1.3.5 1.7 1.7 0 0 1 1 1.5 2.8 2.8 0 0 1-.4 1 11.3 11.3 0 0 0-1 2.4l-1.7 8a73.2 73.2 0 0 1-1.8 7.3q-.4 1-1.2 1a3.2 3.2 0 0 1-1.2-.4 3.4 3.4 0 0 0-.7-.3 5.4 5.4 0 0 1-1-.4.6.6 0 0 1-.2-.5 3.8 3.8 0 0 1 .4-1 9 9 0 0 0 .3-1.3l1.6-7.5 2-8 .4-1.6a1 1 0 0 1 .5-.8 1.4 1.4 0 0 1 .5 0zM499 128l.6-1a2.4 2.4 0 0 1 1.7-.7 1.6 1.6 0 0 1 1.4.6 7.4 7.4 0 0 1 .6 1h.3q1.6-2 2.7-2a3.6 3.6 0 0 1 .8 0 6 6 0 0 1 1 .5 2.5 2.5 0 0 1 1.3 1.4 3.6 3.6 0 0 1 .3 1.3 42.7 42.7 0 0 1-1.6 7.5 15.7 15.7 0 0 0-.4 1.8q-.3 1.3-1 1.3a3.6 3.6 0 0 1-1.6-.6 1.2 1.2 0 0 1-.8-1 22 22 0 0 1 .8-3.5q.6-2.7 1.6-5.5a2 2 0 0 0 0-.6c0-.3 0-.4-.2-.4q-.6 0-2 2.8a27.6 27.6 0 0 0-1.2 4 21.6 21.6 0 0 0-.5 2.3 2.6 2.6 0 0 1-.2 1 .8.8 0 0 1-.7.3 7.3 7.3 0 0 1-1.8-.6q-.7-.3-.7-.8a30.4 30.4 0 0 1 .7-3.5l1-4a1.4 1.4 0 0 0 .2-.5q0-.2-.3-.2-.7 0-1.7 2.2a26.4 26.4 0 0 0-1.6 5.7 11 11 0 0 1-.6 2.3.8.8 0 0 1-.5.3 3.2 3.2 0 0 1-1.7-.5 1.5 1.5 0 0 1-.8-1.4 52.3 52.3 0 0 1 1.2-7.3 29.6 29.6 0 0 0 .7-3.7 2.8 2.8 0 0 1 0-1 1 1 0 0 1 1-.6 6.3 6.3 0 0 1 1 0 4.4 4.4 0 0 1 .7.3.8.8 0 0 1 .5.7 5.5 5.5 0 0 1-.2.8zM516 126.2a2 2 0 0 1 1.3-.4 7.5 7.5 0 0 1 2.4 1q1.2.7 1.2 3a10.5 10.5 0 0 1-1.3 4.5 12 12 0 0 1-3.2 4.2 3 3 0 0 1-1.7.8 1.8 1.8 0 0 1-1-.5.3.3 0 0 0-.2 0q-.2 0-.3.5a33 33 0 0 1-1 3.8l-.3 2q0 .6-.4.8a1.4 1.4 0 0 1-.7.3 2.2 2.2 0 0 1-1.6-.6q-.8-.7-.8-1a33 33 0 0 1 1.4-6.7l1.5-5.6v-.5a2.2 2.2 0 0 1-.5.4 1.6 1.6 0 0 1-.6.2q-.4 0-.4-.5a3 3 0 0 1 1.7-3 1 1 0 0 0 .6-.4l.2-.8a16.5 16.5 0 0 0 .6-2.5q.2-1 1-1a2 2 0 0 1 1 .3 6.8 6.8 0 0 0 .5.4 2 2 0 0 1 .6.3.6.6 0 0 1 .2.4v.7zm1.2 2.4q-.4 0-1.2 1a7 7 0 0 0-.8 2.3l-.7 2.5a4.3 4.3 0 0 0-.2 1h.2q.6 0 2-2.7a13 13 0 0 0 .8-2.7 5.6 5.6 0 0 0 .2-1c0-.3 0-.4-.3-.4zM527 125.3a1.6 1.6 0 0 1 1 .2l1 .6a14.2 14.2 0 0 1 1.6 1 3 3 0 0 1 1 2.4 17.4 17.4 0 0 1-1 4.2q-1.3 4.7-1.4 5.6a2 2 0 0 1-.3 1 1 1 0 0 1-1 .3 1.6 1.6 0 0 1-1.4-.8 2 2 0 0 1-.3-1 3.4 3.4 0 0 0-.7 0 4.4 4.4 0 0 1-1.6.4 2.4 2.4 0 0 1-1.7-.5 3.7 3.7 0 0 1-1-1.5 3.3 3.3 0 0 1-.2-1.2 3 3 0 0 1 1.3-2.3 7 7 0 0 1 4.6-1.5.7.7 0 0 0 .3 0 1 1 0 0 0 .2-.5l.2-.7a6.2 6.2 0 0 0 .2-1.2.6.6 0 0 0-.3-.4.4.4 0 0 0-.3 0 2.7 2.7 0 0 0-1.5.7q-.3 0-1.5 1.4a1.4 1.4 0 0 1-1 .5q-.3 0-.8-.7a2 2 0 0 1-.5-1q0-.7 1.6-2.6 2-2.4 3.3-2.4zm-.4 9.3a2.5 2.5 0 0 0-1.2.4q-1.2.7-1.2 1t1.2.6a3.8 3.8 0 0 0 .7 0 .7.7 0 0 0 .5-.3 1.2 1.2 0 0 0 .2-.5 3.3 3.3 0 0 1 0-.4 1.6 1.6 0 0 0 .2-.5q0-.4-.4-.4zM538 125.6a2.4 2.4 0 0 1 1.4.6 12.3 12.3 0 0 0 1.2.8 2.7 2.7 0 0 1 1 .8 2.3 2.3 0 0 1 0 1.2 7.8 7.8 0 0 1-.3 2.6q-.4 1-1.2 1a2.2 2.2 0 0 1-1.4-.6 1 1 0 0 1-.3-.8 4 4 0 0 1 0-.7 4 4 0 0 1 .3-.8.7.7 0 0 0 0-.3v-.3s-.8.8-1.4 2q-2 4-2 5 0 .6.5.6a2.8 2.8 0 0 0 1-.5 14.6 14.6 0 0 0 1.7-1 14.7 14.7 0 0 1 1.2-1 1 1 0 0 1 .6-.2q.5 0 .5.7a5 5 0 0 1-1 3.4 7.6 7.6 0 0 1-2 1.4 3.5 3.5 0 0 1-1.7.6 2.5 2.5 0 0 1-1.6-.6 12.7 12.7 0 0 1-1.4-1.5 4 4 0 0 1-1-2.7 10.2 10.2 0 0 1 1-4 14.7 14.7 0 0 1 2.4-4 4 4 0 0 1 2.7-1.7zM544 130.7h-.4a.8.8 0 0 1-.3 0 .4.4 0 0 1-.4-.2 4.4 4.4 0 0 1-.3-.8 8 8 0 0 1 0-1 .8.8 0 0 1 .5-.6 7.4 7.4 0 0 1 1 0h.7v-.4a10.2 10.2 0 0 1 .3-1.5l.6-2.6a3.3 3.3 0 0 0 0-.5q.2-.8.7-.8a2.4 2.4 0 0 1 .6 0l.8.3a2 2 0 0 1 1 .5 1.2 1.2 0 0 1 .5.8 8.5 8.5 0 0 1-.4 1.8l-.4 2h.4a1 1 0 0 1 .6.3.6.6 0 0 1 .3.3 1.4 1.4 0 0 1 0 .3 2.5 2.5 0 0 1 0 .4 6 6 0 0 1-.3 1 .8.8 0 0 1-.7.5l-1 .2a.6.6 0 0 0-.2 0v.4a20 20 0 0 1-.4 2.3q0 .4-1 3.7l-.4 1.3a2.6 2.6 0 0 1-.3 1 .7.7 0 0 1-.6.2 3.7 3.7 0 0 1-1.5-.6q-1-.6-1-1.3a5 5 0 0 1 .2-1q0-.6.4-2a31.3 31.3 0 0 1 1-3.4 3.5 3.5 0 0 0 0-.5zM566 130.4q-1.7 4-3 6.3a13.7 13.7 0 0 0-1 2 1.8 1.8 0 0 1-.4.6.8.8 0 0 1-.5.2 4.8 4.8 0 0 1-2.2-1 1.2 1.2 0 0 1-.6-.8v-1.4-1.2a59.2 59.2 0 0 1 .4-6q0-1 .8-6l.5-4a1.6 1.6 0 0 1 0-.7q.3-.4 1.3-.4a5.4 5.4 0 0 1 2 .4 2.6 2.6 0 0 1 .6.2.5.5 0 0 1 0 .5 8.4 8.4 0 0 1 0 1.3 35.4 35.4 0 0 0-.8 4.2l-.8 5.6q1.4-4 2.7-6.6a10.3 10.3 0 0 0 .8-2 .8.8 0 0 1 .5-.7 3.2 3.2 0 0 1 1-.2 3.4 3.4 0 0 1 1 .3l.6.2q.4 0 .5.3a1.8 1.8 0 0 1 0 .7v3q-.2 2.6-.2 5.3l.8-3 1.2-3 1.4-3.7.7-1.8a.8.8 0 0 1 .6-.3 1.5 1.5 0 0 1 1 .5 9.7 9.7 0 0 0 1 1 1 1 0 0 1 .5.8 28.4 28.4 0 0 1-1.5 5.2l-2 5.5-2 5.5a9 9 0 0 0-.6 1.5.7.7 0 0 1-.8.7 5.2 5.2 0 0 1-1.8-.6 6.5 6.5 0 0 1-1.4-.8 5.6 5.6 0 0 1-.4-2.6v-4.8zM579.6 125.5a1.6 1.6 0 0 1 .8.2l1 .6 1.4.8a2 2 0 0 1 .4.6 3 3 0 0 1 .6 1.8 6 6 0 0 1-1 3.4 4 4 0 0 1-1.2 1 2.8 2.8 0 0 1-1.5.6 3.8 3.8 0 0 1-2-.7c-.2 0-.3.2-.5.7a6.2 6.2 0 0 0 0 1.4 1 1 0 0 0 0 .6.7.7 0 0 0 .6.4 3.2 3.2 0 0 0 1.4-.6l1.3-1a1.4 1.4 0 0 1 .7-.2 2.3 2.3 0 0 1 .7.3l.4.2a.6.6 0 0 1 .5.6q0 .7-1.7 2.3a4.6 4.6 0 0 1-3.2 1.6 2.2 2.2 0 0 1-1.2-.6 11 11 0 0 1-.8-.8 6.7 6.7 0 0 1-1.2-1 4.6 4.6 0 0 1-.7-2.8 11.7 11.7 0 0 1 2-5.8q2-3.5 3.6-3.5zm.7 3.4q-.4 0-1 .7a7.8 7.8 0 0 0-.7 1.7s0 .3.3.4a1 1 0 0 0 .5.2q.4 0 .8-.8a4 4 0 0 0 .5-1.6c0-.4-.2-.7-.5-.7zM589.8 127.8l.8-.8a2 2 0 0 1 1.3-.6 4.3 4.3 0 0 1 2 1q1 .8 1 3a14.6 14.6 0 0 1-1.6 6.6 6.2 6.2 0 0 1-1.6 2 3.2 3.2 0 0 1-2 .8 3.5 3.5 0 0 1-1.6-.5 5.7 5.7 0 0 0-1-.4l-1-.3a1.4 1.4 0 0 1-1-1 7 7 0 0 1-.4-2.2 28 28 0 0 1 .6-4.8l1-5q1-4.3 1-5l.2-1.4q0-1 .7-1a1.6 1.6 0 0 1 .5 0 15 15 0 0 0 1.7.5 2.2 2.2 0 0 1 1 .5.7.7 0 0 1 0 .5l-.4 3-.5 2.5-.7 2.5zm1.4 2q-.2 0-.6.4a6.4 6.4 0 0 0-.7 1 12 12 0 0 0-1.4 4 6.6 6.6 0 0 0 0 1 1.5 1.5 0 0 0 0 .6c0 .3.2.4.4.4q1 0 1.7-2.7a16 16 0 0 0 .8-4.2c0-.4 0-.5-.4-.6zM609.6 117.7a9.4 9.4 0 0 1 3 .5 10.2 10.2 0 0 1 3 1.5q2.2 1.7 2.2 5.5a13 13 0 0 1-2.2 7.5 20.3 20.3 0 0 1-2.7 3 22 22 0 0 1-3.4 2.7 7.5 7.5 0 0 1-3.4 1.5 1 1 0 0 1-.7-.4l-.4-.6a2.3 2.3 0 0 0-1-1 1 1 0 0 1-.6-1 30.7 30.7 0 0 1 .7-4.4l2-8q1-3.7 1-4.7a4 4 0 0 1 .3-1 2.7 2.7 0 0 1 .8-.5 3 3 0 0 0 .3-.3 1.4 1.4 0 0 1 1.4-.5zm2 4q-.2 0-.3.3a72.8 72.8 0 0 1-2.7 10.2 22 22 0 0 1-.8 2.3v.2c.2 0 .4 0 .6-.4l1-1a23.2 23.2 0 0 0 3-4.8 9.7 9.7 0 0 0 1-4.2 2.7 2.7 0 0 0-.7-2 1.7 1.7 0 0 0-1-.6zM622.7 125.5a1.6 1.6 0 0 1 .8.2l1 .6 1.3.8a2 2 0 0 1 .5.6 3 3 0 0 1 .6 1.8 6 6 0 0 1-1 3.4 4 4 0 0 1-1.4 1 2.8 2.8 0 0 1-1.4.6 3.8 3.8 0 0 1-2-.7.3.3 0 0 0-.2 0s-.3.2-.4.7a6.2 6.2 0 0 0 0 1.4 1 1 0 0 0 0 .6.7.7 0 0 0 .6.4 3.2 3.2 0 0 0 1.3-.6l1.3-1a1.4 1.4 0 0 1 .7-.2 2.3 2.3 0 0 1 .7.3l.3.2a.6.6 0 0 1 .5.6q0 .7-1.6 2.3a4.6 4.6 0 0 1-3.2 1.6 2.2 2.2 0 0 1-1.3-.6 11 11 0 0 1-1-.8 6.7 6.7 0 0 1-1.2-1 4.6 4.6 0 0 1-.6-2.8 11.7 11.7 0 0 1 1.8-5.8q2-3.5 3.7-3.5zm.7 3.4q-.4 0-1 .7a7.8 7.8 0 0 0-.7 1.7s0 .3.3.4a1 1 0 0 0 .5.2q.5 0 .8-.8a4 4 0 0 0 .6-1.6c0-.4-.3-.7-.6-.7zM628 135a.8.8 0 0 1 .5.3l.7 1s.7.7 1 .7a.5.5 0 0 0 .6-.6 6 6 0 0 0-1.3-2.3 8 8 0 0 1-1-1.7 4.8 4.8 0 0 1-.3-1.7 5 5 0 0 1 1.5-3.7 4.2 4.2 0 0 1 3-1.4 1.6 1.6 0 0 1 1 .4l1.3 1a2 2 0 0 1 .7 2 5.3 5.3 0 0 1-.5 2.3 1.2 1.2 0 0 1-1 .8q-1 0-1.4-.6a3 3 0 0 1-.3-1.2 2 2 0 0 1 .3-1q0-.3-.2-.3-.4 0-.7.5a2.2 2.2 0 0 0-.5 1.2 3.8 3.8 0 0 0 1.3 2.4 9 9 0 0 1 1.4 2 3.3 3.3 0 0 1 .3 1.3 3 3 0 0 1-1.3 2.4 16.6 16.6 0 0 1-1.5 1 2.2 2.2 0 0 1-1 .3 4 4 0 0 1-3-1.5 2.2 2.2 0 0 1-.8-1.3 4.3 4.3 0 0 1 0-1.3 2 2 0 0 1 .4-.8.6.6 0 0 1 .5-.2zM639 125.8a1.7 1.7 0 0 1 1 .4l1 .7a1.2 1.2 0 0 1 .6.4 2 2 0 0 1 .2.7 9.6 9.6 0 0 1-.4 2l-1 4.8q-.5 1.7-.8 3.7 0 1-.8 1a1.7 1.7 0 0 1-.7 0l-.8-.6a3 3 0 0 1-1-.7 1.3 1.3 0 0 1-.3-.8 19.3 19.3 0 0 1 .5-3.4l1.2-5.2a12.8 12.8 0 0 0 .5-1.8q.2-1.2 1-1.2zm2-6.3a1.8 1.8 0 0 1 1 .4 1.4 1.4 0 0 1 .8 1v.3a1.5 1.5 0 0 0 0 .3 2 2 0 0 1 0 .4V123.2a.5.5 0 0 1 0 .2l-.4 1a2.6 2.6 0 0 1-.4.6 1 1 0 0 1-.7.3 3.5 3.5 0 0 1-.6-.2 1.6 1.6 0 0 0-.5 0h-.4a.7.7 0 0 1-.7-.5 4.5 4.5 0 0 1-.2-1.8 4 4 0 0 1 .5-2l.2-.4a1.2 1.2 0 0 1 .3-.2 3.5 3.5 0 0 0 .5-.3 1 1 0 0 1 .7-.2zM645.3 138a3 3 0 0 1-.5-1.5.8.8 0 0 0 0-.3.6.6 0 0 0-.3 0 2.5 2.5 0 0 1-1.7-1.4 4.5 4.5 0 0 1-.5-2.2 9.4 9.4 0 0 1 1.7-5 7.2 7.2 0 0 1 1-1.5 1.3 1.3 0 0 1 1-.2 4.5 4.5 0 0 1 1.5.3 1 1 0 0 0 .3.2q.2 0 .8-.8a6 6 0 0 1 .7-.7 9.3 9.3 0 0 1 1-.7 2 2 0 0 1 1-.4 1 1 0 0 1 .7.4l.3.3a1 1 0 0 1 .3.7.8.8 0 0 1-.3.7l-.4.3-.4.3-.4.3a.8.8 0 0 0 .2.3 1.5 1.5 0 0 1 .2.4 4.6 4.6 0 0 0 .4 1 3 3 0 0 1 .3 1.2 13.2 13.2 0 0 1-1 4 3.5 3.5 0 0 1-2.4 2.6c-.3 0-.4 0-.4.3a3 3 0 0 0 0 .6.8.8 0 0 0 .5.6 1.4 1.4 0 0 1 .6.4 16 16 0 0 1 1 1.7 4.7 4.7 0 0 1 .7 2.2 3.2 3.2 0 0 1-1.2 2.5 7.3 7.3 0 0 1-3.2 1.3 12.8 12.8 0 0 1-2.5.3 4.7 4.7 0 0 1-1.5 0 2.6 2.6 0 0 1-.8-.8l-.7-.6a3.5 3.5 0 0 1-1-1 2.2 2.2 0 0 1-.2-1q0-2 2.8-3.7a7.5 7.5 0 0 1 2.5-1zm1.4 2.4a2.5 2.5 0 0 0-1.3.7l-.6.6-.3.4a2.5 2.5 0 0 0-.5.8q0 .4 1 .4a4.7 4.7 0 0 0 2-.5 1.2 1.2 0 0 0 .7-1 1.3 1.3 0 0 0-.3-1q-.4-.3-.7-.3zm1-12q-.6 0-1.3 2.4a9.2 9.2 0 0 0-.5 2.4 2 2 0 0 0 .2.7c0 .2.2.4.4.4s.3 0 .5-.4a2.7 2.7 0 0 0 .6-.7 5.8 5.8 0 0 0 .6-1.7 12.8 12.8 0 0 0 .3-2 1 1 0 0 0-.2-.7q-.4-.6-.6-.6zM657.6 127.4a10 10 0 0 1 .8-1 2.4 2.4 0 0 1 1.6-.7 4 4 0 0 1 1.3.2 4.2 4.2 0 0 1 1.2.6 2.4 2.4 0 0 1 .7 1 2.7 2.7 0 0 1 .3 1 34.2 34.2 0 0 1-1.4 6.3l-1 4q-.2 1-1 1a3.3 3.3 0 0 1-1.6-.6q-1-.6-1-1l.7-3 .8-2.4 1-3.4q0-.4-.3-.4t-1 .8a9 9 0 0 0-1 2 55.2 55.2 0 0 0-1.6 5.5 5 5 0 0 1-.7 1.5 1 1 0 0 1-.7.3 2.5 2.5 0 0 1-1.5-.7 1.8 1.8 0 0 1-.7-1.4 19.7 19.7 0 0 1 .6-3q1-4 1-4.7l.5-2a2.3 2.3 0 0 1 .4-1 1 1 0 0 1 .7-.4 2.5 2.5 0 0 1 1.4.5 1.3 1.3 0 0 1 .6 1zM685.7 131.8a1.3 1.3 0 0 1 1 .6 2 2 0 0 1 .6 1q0 .3-.4.6-.2 0-1 .6l-.7.6v.2a10 10 0 0 1 1 1.4 3 3 0 0 1 .6 1.4 1.7 1.7 0 0 1-.8 1 1.5 1.5 0 0 1-1 .6 2 2 0 0 1-1-.7l-1-.7a5.3 5.3 0 0 1-.5-.7l-.3-.3-.2.2a13 13 0 0 1-2.5 1.6 6.2 6.2 0 0 1-3 1 4.2 4.2 0 0 1-2.7-1 8.7 8.7 0 0 1-1.5-1.6 3.5 3.5 0 0 1-.7-2q0-3.2 4-5.8c.2 0 .3-.2.3-.3v-.2a4 4 0 0 1-.7-1.3 5.8 5.8 0 0 1-.3-1.7 7 7 0 0 1 2.3-5.3 6.3 6.3 0 0 1 4.5-2 3.6 3.6 0 0 1 2.6.8 13 13 0 0 1 1.4 2 5 5 0 0 1 .8 2.6 5.7 5.7 0 0 1-1.6 3.8 7.2 7.2 0 0 1-1.6 1.4l-1.4 1a.3.3 0 0 0-.2.2 2.3 2.3 0 0 0 .3.4 13.2 13.2 0 0 1 1 1.3q.4.8.6.8a.5.5 0 0 0 .2 0 7.3 7.3 0 0 1 1-.6 2.7 2.7 0 0 1 1-.4zm-7.6.7l-.8.7q-1.6 1.6-1.6 2.5 0 .6.8.6a4 4 0 0 0 2-.8q1.4-.8 1.4-1a6.3 6.3 0 0 0-.7-.8l-.4-.6-.5-.5zm1.6-5a12.6 12.6 0 0 0 1.5-1.5 4.3 4.3 0 0 0 1.8-2.6 1.3 1.3 0 0 0-.3-.8 1 1 0 0 0-.8-.4 1.6 1.6 0 0 0-1 .5 3.5 3.5 0 0 0-.8 1.2 5.5 5.5 0 0 0-.5 2 6.3 6.3 0 0 0 0 1.3zM702.6 117.7a9.4 9.4 0 0 1 3 .5 10.2 10.2 0 0 1 2.8 1.5q2.4 1.7 2.4 5.5a13 13 0 0 1-2.3 7.5 20.3 20.3 0 0 1-2.7 3 22 22 0 0 1-3.3 2.7 7.5 7.5 0 0 1-3.4 1.5 1 1 0 0 1-.6-.4l-.4-.6a2.3 2.3 0 0 0-1-1 1 1 0 0 1-.7-1 30.7 30.7 0 0 1 .7-4.4l2-8 1-4.7a4 4 0 0 1 .2-1 2.7 2.7 0 0 1 .8-.5 3 3 0 0 0 .3-.3 1.4 1.4 0 0 1 1.3-.5zm2 4q-.3 0-.3.3a72.8 72.8 0 0 1-2.8 10.2 22 22 0 0 1-.8 2.3v.2c.3 0 .4 0 .7-.4l1-1a23.2 23.2 0 0 0 3-4.8 9.7 9.7 0 0 0 1-4.2 2.7 2.7 0 0 0-.7-2 1.7 1.7 0 0 0-1-.6zM713.3 125.8a1.7 1.7 0 0 1 .8.4l1.2.7a1.2 1.2 0 0 1 .6.4 2 2 0 0 1 0 .7 9.6 9.6 0 0 1-.3 2q0 .6-1 4.8-.5 1.7-.8 3.7 0 1-.8 1a1.7 1.7 0 0 1-.8 0l-1-.6a3 3 0 0 1-1-.7 1.3 1.3 0 0 1 0-.8 19.3 19.3 0 0 1 .4-3.4q.6-3 1.3-5.2a12.8 12.8 0 0 0 .3-1.8q.2-1.2 1-1.2zm2-6.3a1.8 1.8 0 0 1 1 .4 1.4 1.4 0 0 1 .6 1v.3a1.5 1.5 0 0 0 0 .3 2 2 0 0 1 0 .4V123.2a.5.5 0 0 1 0 .2l-.5 1a2.6 2.6 0 0 1-.4.6 1 1 0 0 1-.5.3 3.5 3.5 0 0 1-.7-.2 1.6 1.6 0 0 0-.5 0h-.3a.7.7 0 0 1-.7-.5 4.5 4.5 0 0 1-.4-1.8 4 4 0 0 1 .4-2l.3-.4a1.2 1.2 0 0 1 .3-.2 3.5 3.5 0 0 0 .4-.3 1 1 0 0 1 .8-.2zM719.4 138a3 3 0 0 1-.4-1.5.8.8 0 0 0 0-.2.6.6 0 0 0-.4 0 2.5 2.5 0 0 1-1.7-1.5 4.5 4.5 0 0 1-.6-2 9.4 9.4 0 0 1 1.7-5.3 7.2 7.2 0 0 1 1.2-1.4 1.3 1.3 0 0 1 .8-.2 4.5 4.5 0 0 1 1.6.4 1 1 0 0 0 .3 0l.7-.7a6 6 0 0 1 .7-.7 9.3 9.3 0 0 1 1-.8 2 2 0 0 1 1-.3 1 1 0 0 1 .7.4l.4.4a1 1 0 0 1 .3.7.8.8 0 0 1-.3.7l-.4.3-.3.3-.4.4a.8.8 0 0 0 .2.2 1.5 1.5 0 0 1 .2.5 4.6 4.6 0 0 0 .3 1 3 3 0 0 1 .4 1 13.2 13.2 0 0 1-1 4.3 3.5 3.5 0 0 1-2.4 2.4c-.2 0-.3.2-.3.3a3 3 0 0 0 0 .7.8.8 0 0 0 .5.5 1.4 1.4 0 0 1 .5.4 16 16 0 0 1 1 1.7 4.7 4.7 0 0 1 .7 2.3 3.2 3.2 0 0 1-1.2 2.6 7.3 7.3 0 0 1-3.3 1.3 12.8 12.8 0 0 1-2.6 0 4.7 4.7 0 0 1-1.5 0 2.6 2.6 0 0 1-1-.7l-.6-.7a3.5 3.5 0 0 1-1-1 2.2 2.2 0 0 1-.3-1q0-2 3-3.7a7.5 7.5 0 0 1 2.4-1zm1.5 2.4a2.5 2.5 0 0 0-1.5.7l-.6.6-.4.4a2.5 2.5 0 0 0-.5.8q0 .4 1 .4a4.7 4.7 0 0 0 2-.5 1.2 1.2 0 0 0 .8-1 1.3 1.3 0 0 0-.3-1l-.6-.3zm.8-12q-.6 0-1.3 2.4a9.2 9.2 0 0 0-.5 2.4 2 2 0 0 0 .3.7c0 .2.3.4.4.4l.5-.4a2.7 2.7 0 0 0 .6-.7 5.8 5.8 0 0 0 .6-1.7 12.8 12.8 0 0 0 .2-2 1 1 0 0 0-.2-.7q-.4-.6-.6-.6zM730 125.8a1.7 1.7 0 0 1 .7.4l1 .7a1.2 1.2 0 0 1 .7.4 2 2 0 0 1 0 .7 9.6 9.6 0 0 1-.2 2l-1.2 4.8q-.4 1.7-.6 3.7-.2 1-1 1a1.7 1.7 0 0 1-.6 0l-1-.6a3 3 0 0 1-1-.7 1.3 1.3 0 0 1 0-.8 19.3 19.3 0 0 1 .4-3.4q.6-3 1.3-5.2a12.8 12.8 0 0 0 .4-1.8q0-1.2 1-1.2zm1.8-6.3a1.8 1.8 0 0 1 1 .4 1.4 1.4 0 0 1 .7 1v.3a1.5 1.5 0 0 0 0 .3 2 2 0 0 1 0 .4V123.2a.5.5 0 0 1 0 .2l-.4 1a2.6 2.6 0 0 1-.3.6 1 1 0 0 1-.6.3 3.5 3.5 0 0 1-.5-.2 1.6 1.6 0 0 0-.5 0h-.4a.7.7 0 0 1-.7-.5 4.5 4.5 0 0 1-.4-1.8 4 4 0 0 1 .5-2l.3-.4a1.2 1.2 0 0 1 .3-.2 3.5 3.5 0 0 0 .4-.3 1 1 0 0 1 .8-.2zM734.3 130.7h-.2a.8.8 0 0 1-.2 0 .4.4 0 0 1-.4-.2 4.4 4.4 0 0 1-.2-.8 8 8 0 0 1 0-1 .8.8 0 0 1 .5-.6 7.4 7.4 0 0 1 1 0h.6c.2 0 .2-.2.2-.4a10.2 10.2 0 0 1 .3-1.5l.6-2.6a3.3 3.3 0 0 0 0-.5q.3-.8.8-.8a2.4 2.4 0 0 1 .6 0l.8.3a2 2 0 0 1 1 .5 1.2 1.2 0 0 1 .3.8 8.5 8.5 0 0 1-.4 1.8l-.6 2h.5a1 1 0 0 1 .6.3.6.6 0 0 1 .3.3 1.4 1.4 0 0 1 0 .3 2.5 2.5 0 0 1 0 .4 6 6 0 0 1 0 1 .8.8 0 0 1-.8.5l-1 .2a.6.6 0 0 0-.2 0v.4a20 20 0 0 1-.5 2.3q0 .4-1 3.7l-.3 1.3a2.6 2.6 0 0 1-.3 1 .7.7 0 0 1-.6.2 3.7 3.7 0 0 1-1.7-.6q-1-.6-1-1.3a5 5 0 0 1 .2-1q0-.6.4-2a31.3 31.3 0 0 1 .8-3.5 3.5 3.5 0 0 0 .2-.5h-.3zM745.5 125.3a1.6 1.6 0 0 1 .8.2l1 .6a14.2 14.2 0 0 1 1.7 1 3 3 0 0 1 1 2.4 17.4 17.4 0 0 1-1 4.2q-1.3 4.7-1.4 5.6a2 2 0 0 1-.3 1 1 1 0 0 1-1 .3 1.6 1.6 0 0 1-1.3-.8 2 2 0 0 1-.3-1h-.2a3.4 3.4 0 0 0-.5 0 4.4 4.4 0 0 1-1.6.4 2.4 2.4 0 0 1-1.7-.5 3.7 3.7 0 0 1-1-1.5 3.3 3.3 0 0 1-.3-1.2 3 3 0 0 1 1.3-2.3 7 7 0 0 1 4.6-1.5.7.7 0 0 0 .4 0 1 1 0 0 0 .2-.5v-.7a6.2 6.2 0 0 0 .3-1.2.6.6 0 0 0-.2-.4.4.4 0 0 0-.2 0 2.7 2.7 0 0 0-1.5.7q-.2 0-1.5 1.4a1.4 1.4 0 0 1-1 .5q-.3 0-.7-.7a2 2 0 0 1-.4-1q0-.7 1.6-2.6 2-2.4 3.3-2.4zm-.5 9.3a2.5 2.5 0 0 0-1.2.4q-1.2.7-1.2 1t1.2.6a3.8 3.8 0 0 0 .7 0 .7.7 0 0 0 .4-.3 1.2 1.2 0 0 0 0-.5 3.3 3.3 0 0 1 .2-.4 1.6 1.6 0 0 0 0-.5q0-.4-.2-.4zM755.3 118.8a3.2 3.2 0 0 1 2 .7 1.5 1.5 0 0 1 .7 1 2 2 0 0 1-.2.7 4 4 0 0 0 0 .6l-.8 2.7-1.5 6.6-1.4 6.2a15.6 15.6 0 0 0-.2 1.5q-.2 1-.8 1a1.7 1.7 0 0 1-.7-.3 4.8 4.8 0 0 0-1-.3 1.6 1.6 0 0 1-.7-.2 1 1 0 0 1-.3-.8 36 36 0 0 1 .7-4q.8-4.5 1.7-7.7l1.6-6.5a1.3 1.3 0 0 1 .3-.8 1 1 0 0 1 .7-.2zM778 125.5q-2 4.4-3.7 7.7l-.6 1.3a3 3 0 0 1-.5.8 1 1 0 0 1-.6.2 3.4 3.4 0 0 1-1.6-.7l-.5-.3a.7.7 0 0 1-.5-.7 6.8 6.8 0 0 1 0-.8q.2-1 .3-7.3-.5 2.5-1 4 0 .8-1 4.5l-.7 2.7a16.7 16.7 0 0 1-.5 1.8.7.7 0 0 1-.5.3 2 2 0 0 1-1-.3 7 7 0 0 1-1.2-1 1.2 1.2 0 0 1-.3-.6 6.3 6.3 0 0 1 .3-1.6l.8-3.4 2-7q1.2-4 1.7-6.3a1.7 1.7 0 0 1 .5-1 1 1 0 0 1 .8-.3 4 4 0 0 1 1.3.4 5 5 0 0 0 1.4.5q1.5.2 1.5 1a2 2 0 0 1 0 .2l-.2 2.2-.3 4.8a71 71 0 0 1 3-6.5l.6-1a2 2 0 0 1 .5-1 1.2 1.2 0 0 1 .7 0 3.8 3.8 0 0 1 1.6.5 10 10 0 0 0 2 .8 1.3 1.3 0 0 1 .8.5 1 1 0 0 1 .2.6 24 24 0 0 1-.6 2.7l-.7 3.7q-.7 3.7-2 8.3a30.8 30.8 0 0 0-.5 3 4.4 4.4 0 0 1-.4 1.6.7.7 0 0 1-.6.3 3.6 3.6 0 0 1-1.4-.6l-.6-.3a2.7 2.7 0 0 1-.7-.3.4.4 0 0 1-.2-.3 2 2 0 0 1 0-.5 13.6 13.6 0 0 0 .5-1.6l1-5.4q1-3.2 1.3-5.5zM788 125.3a1.6 1.6 0 0 1 .8.2l1 .6a14.2 14.2 0 0 1 1.7 1 3 3 0 0 1 1 2.4 17.4 17.4 0 0 1-.8 4.2q-1.5 4.7-1.6 5.6a2 2 0 0 1-.2 1 1 1 0 0 1-.8.3 1.6 1.6 0 0 1-1.5-.8 2 2 0 0 1-.2-1h-.2a3.4 3.4 0 0 0-.5 0 4.4 4.4 0 0 1-1.6.4 2.4 2.4 0 0 1-1.8-.5 3.7 3.7 0 0 1-1-1.5 3.3 3.3 0 0 1-.2-1.2 3 3 0 0 1 1.2-2.3 7 7 0 0 1 4.6-1.5.7.7 0 0 0 .4 0 1 1 0 0 0 .2-.5l.2-.7a6.2 6.2 0 0 0 .2-1.2.6.6 0 0 0-.2-.4.4.4 0 0 0-.3 0 2.7 2.7 0 0 0-1.5.7q-.2 0-1.4 1.4a1.4 1.4 0 0 1-1 .5q-.3 0-.8-.7a2 2 0 0 1-.5-1q0-.7 1.7-2.6 2-2.4 3.3-2.4zm-.5 9.3a2.5 2.5 0 0 0-1.2.4q-1.2.7-1.2 1t1.3.6a3.8 3.8 0 0 0 .7 0 .7.7 0 0 0 .4-.3 1.2 1.2 0 0 0 .2-.5 3.3 3.3 0 0 1 0-.4 1.6 1.6 0 0 0 .2-.5q0-.4-.3-.4zM797 125.6a1.8 1.8 0 0 1 .8.3h.3q.7.3.7.7a3.4 3.4 0 0 1-.4 1 1.7 1.7 0 0 0-.3.7q0 .4.2.4l.5-.5a1.4 1.4 0 0 1 1.3-.8q1.2 0 1.2 1.8a9.3 9.3 0 0 1-.4 2.2 5.7 5.7 0 0 1-.2 1 1.3 1.3 0 0 1-1.2.8 1 1 0 0 1-.8-.4 1.5 1.5 0 0 1-.4-1q0-1-.2-1t-.3.8a21.3 21.3 0 0 1-.5 2.4l-.7 3-.4 1.6q-.2 1-.8 1a4.2 4.2 0 0 1-2-.7 1 1 0 0 1-.5-1 6.6 6.6 0 0 1 0-.7 87.5 87.5 0 0 1 2.2-9 6.2 6.2 0 0 0 .2-1.6.8.8 0 0 1 .3-.6 2.3 2.3 0 0 1 1.5-.4zM805.6 131.2l1.3-2 1.7-3.2a3.8 3.8 0 0 1 .8-1.2.7.7 0 0 1 .5 0q.3-.2.8.4a3.7 3.7 0 0 1 .6.6 2 2 0 0 1 .2 1 4.3 4.3 0 0 1-.2 1 7.4 7.4 0 0 1-.5 1.3l-1.2 2a11.6 11.6 0 0 1-1 1.4.8.8 0 0 0-.2.5 18.5 18.5 0 0 1 1 2l.7 2a13.4 13.4 0 0 1 .4 1.7q0 .4-.6 1a1.2 1.2 0 0 1-.6.2 2 2 0 0 1-1.8-1.2l-.8-1.4q-.5-1-1-1.6a9.5 9.5 0 0 1-.8-1.7 35 35 0 0 1-1 4.7 1 1 0 0 1-1 .7 3.5 3.5 0 0 1-1.8-.7 1.3 1.3 0 0 1-.7-1 27.4 27.4 0 0 1 .8-4.4l1-5 1.3-4.3q1.2-4.2 1.2-4.8a1.8 1.8 0 0 1 .3-1 .8.8 0 0 1 .7-.2 4.6 4.6 0 0 1 2.3 1q.8.4.8 1a7.8 7.8 0 0 1-.4 1.6q-.2.4-.8 2.6t-1 3.7l-1 3.2zM817 125.5a1.6 1.6 0 0 1 .7.2l1 .6 1.3.8a2 2 0 0 1 .5.6 3 3 0 0 1 .6 1.8 6 6 0 0 1-1 3.4 4 4 0 0 1-1.2 1 2.8 2.8 0 0 1-1.4.6 3.8 3.8 0 0 1-2-.7.3.3 0 0 0-.2 0c-.2 0-.3.2-.4.7a6.2 6.2 0 0 0-.2 1.4 1 1 0 0 0 .2.6.7.7 0 0 0 .6.4 3.2 3.2 0 0 0 1.3-.6l1.3-1a1.4 1.4 0 0 1 .7-.2 2.3 2.3 0 0 1 .6.3l.4.2a.6.6 0 0 1 .4.6q0 .7-1.5 2.3a4.6 4.6 0 0 1-3 1.6 2.2 2.2 0 0 1-1.5-.6 11 11 0 0 1-.8-.8 6.7 6.7 0 0 1-1.2-1 4.6 4.6 0 0 1-.6-2.8 11.7 11.7 0 0 1 1.8-5.8q2-3.5 3.7-3.5zm.6 3.4q-.5 0-1 .7a7.8 7.8 0 0 0-.8 1.7l.4.4a1 1 0 0 0 .5.2q.4 0 .8-.8a4 4 0 0 0 .5-1.6c0-.4 0-.7-.4-.7zM823 130.7h-.4a.8.8 0 0 1-.3 0 .4.4 0 0 1-.4-.2 4.4 4.4 0 0 1-.3-.8 8 8 0 0 1 0-1 .8.8 0 0 1 .5-.6 7.4 7.4 0 0 1 1 0h.7v-.4a10.2 10.2 0 0 1 .3-1.5l.6-2.6a3.3 3.3 0 0 0 0-.5q.2-.8.7-.8a2.4 2.4 0 0 1 .6 0l.8.3a2 2 0 0 1 1 .5 1.2 1.2 0 0 1 .5.8 8.5 8.5 0 0 1-.4 1.8l-.4 2h.4a1 1 0 0 1 .6.3.6.6 0 0 1 .3.3 1.4 1.4 0 0 1 0 .3 2.5 2.5 0 0 1 0 .4 6 6 0 0 1-.3 1 .8.8 0 0 1-.7.5l-1 .2a.6.6 0 0 0-.2 0v.4a20 20 0 0 1-.4 2.3q0 .4-1 3.7l-.4 1.3a2.6 2.6 0 0 1-.3 1 .7.7 0 0 1-.6.2 3.7 3.7 0 0 1-1.5-.6q-1-.6-1-1.3a5 5 0 0 1 .2-1q0-.6.4-2a31.3 31.3 0 0 1 1-3.4 3.5 3.5 0 0 0 0-.5zM831.3 125.8a1.7 1.7 0 0 1 1 .4l1 .7a1.2 1.2 0 0 1 .6.4 2 2 0 0 1 0 .7 9.6 9.6 0 0 1-.4 2q0 .6-1 4.8-.5 1.7-.8 3.7 0 1-.8 1a1.7 1.7 0 0 1-.7 0l-1-.6a3 3 0 0 1-1-.7 1.3 1.3 0 0 1-.2-.8 19.3 19.3 0 0 1 .7-3.4q.6-3 1.3-5.2a12.8 12.8 0 0 0 .4-1.8q.2-1.2 1-1.2zm2-6.3a1.8 1.8 0 0 1 1 .4 1.4 1.4 0 0 1 .7 1v.3a1.5 1.5 0 0 0 0 .3 2 2 0 0 1 0 .4V123.2a.5.5 0 0 1 0 .2l-.4 1a2.6 2.6 0 0 1-.4.6 1 1 0 0 1-.6.3 3.5 3.5 0 0 1-.7-.2 1.6 1.6 0 0 0-.6 0h-.4a.7.7 0 0 1-.6-.5 4.5 4.5 0 0 1-.4-1.8 4 4 0 0 1 .5-2l.3-.4a1.2 1.2 0 0 1 .2-.2 3.5 3.5 0 0 0 .5-.3 1 1 0 0 1 .8-.2zM839 127.4a10 10 0 0 1 1-1 2.4 2.4 0 0 1 1.5-.7 4 4 0 0 1 1.3.2 4.2 4.2 0 0 1 1.2.6 2.4 2.4 0 0 1 .7 1 2.7 2.7 0 0 1 .3 1 34.2 34.2 0 0 1-1.4 6.3q-.8 2.5-1 4-.3 1-1 1a3.3 3.3 0 0 1-1.7-.6q-1-.6-1-1l.6-3 .7-2.4 1-3.4q0-.4-.4-.4t-1 .8a9 9 0 0 0-1 2 55.2 55.2 0 0 0-1.7 5.5 5 5 0 0 1-.5 1.5 1 1 0 0 1-.7.3 2.5 2.5 0 0 1-1.5-.7 1.8 1.8 0 0 1-.8-1.4 19.7 19.7 0 0 1 .7-3q1-4 1-4.7l.6-2a2.3 2.3 0 0 1 .4-1 1 1 0 0 1 .8-.4 2.5 2.5 0 0 1 1.4.5 1.3 1.3 0 0 1 .4 1zM848.8 138a3 3 0 0 1-.5-1.5.8.8 0 0 0 0-.3.6.6 0 0 0-.4 0 2.5 2.5 0 0 1-1.7-1.4 4.5 4.5 0 0 1-.5-2.2 9.4 9.4 0 0 1 1.6-5 7.2 7.2 0 0 1 1-1.5 1.3 1.3 0 0 1 1-.2 4.5 4.5 0 0 1 1.6.3 1 1 0 0 0 .3.2q.2 0 .7-.8a6 6 0 0 1 .8-.7 9.3 9.3 0 0 1 1-.7 2 2 0 0 1 1-.4 1 1 0 0 1 .7.4l.2.3a1 1 0 0 1 .3.7.8.8 0 0 1-.2.7l-.4.3-.4.3-.3.3a.8.8 0 0 0 0 .3 1.5 1.5 0 0 1 .4.4 4.6 4.6 0 0 0 .4 1 3 3 0 0 1 .3 1.2 13.2 13.2 0 0 1-1 4 3.5 3.5 0 0 1-2.4 2.6c-.2 0-.3 0-.3.3a3 3 0 0 0 0 .6.8.8 0 0 0 .6.6 1.4 1.4 0 0 1 .5.4 16 16 0 0 1 1 1.7 4.7 4.7 0 0 1 .8 2.2 3.2 3.2 0 0 1-1.3 2.5 7.3 7.3 0 0 1-3.3 1.3 12.8 12.8 0 0 1-2.4.3 4.7 4.7 0 0 1-1.5 0 2.6 2.6 0 0 1-1-.8l-.6-.6a3.5 3.5 0 0 1-1-1 2.2 2.2 0 0 1-.2-1q0-2 2.7-3.7a7.5 7.5 0 0 1 2.6-1zm1.4 2.4a2.5 2.5 0 0 0-1.4.7l-.6.6-.2.4a2.5 2.5 0 0 0-.6.8q0 .4 1 .4a4.7 4.7 0 0 0 2-.5 1.2 1.2 0 0 0 .7-1 1.3 1.3 0 0 0-.2-1q-.3-.3-.6-.3zm1-12q-.7 0-1.4 2.4a9.2 9.2 0 0 0-.4 2.4 2 2 0 0 0 .2.7c0 .2.3.4.4.4l.5-.4a2.7 2.7 0 0 0 .6-.7 5.8 5.8 0 0 0 .7-1.7 12.8 12.8 0 0 0 .2-2 1 1 0 0 0-.2-.7q-.4-.6-.7-.6z"/></g><g><path d="M420.8 69.5h12.4l6 19.7 6.2-19.7h12l-13 31h-10.7zM472 79.6l-11.5-1.2a12.8 12.8 0 0 1 1.8-4.7 10.3 10.3 0 0 1 3.5-3 14.7 14.7 0 0 1 4.5-1.4 36.4 36.4 0 0 1 6.2-.5 49.4 49.4 0 0 1 8.6.6 11 11 0 0 1 5.5 2.5 8.8 8.8 0 0 1 2.4 3.6 13.5 13.5 0 0 1 .8 4.6V94a16.5 16.5 0 0 0 .3 3.4 15.4 15.4 0 0 0 1.3 3.2H484a11.3 11.3 0 0 1-.8-1.8 13.5 13.5 0 0 1-.4-2 15.5 15.5 0 0 1-4.6 3.2 19.4 19.4 0 0 1-7.3 1.3q-5.7 0-8.6-2.6a8.2 8.2 0 0 1-3-6.3 8.3 8.3 0 0 1 2.2-6q2-2.2 7.7-3.3 6.7-1.2 8.7-1.8a40.5 40.5 0 0 0 4.2-1.4 4.2 4.2 0 0 0-1-3 4.6 4.6 0 0 0-3-1 8.3 8.3 0 0 0-4.5 1 5 5 0 0 0-1.8 2.8zm10.2 6.2q-2.5 1-5 1.6-3.8 1-4.7 2a3 3 0 0 0 0 4.4 4.2 4.2 0 0 0 3 1 7.4 7.4 0 0 0 3.6-1 6 6 0 0 0 2.5-2.5 8 8 0 0 0 .7-3.6zM514.3 57.6v12h6.6V78h-6.7v11a6 6 0 0 0 .4 2.6 2.2 2.2 0 0 0 2 1 13 13 0 0 0 3.7-.7l1 8.3a38.8 38.8 0 0 1-8.4 1q-4.4 0-6.5-1a7 7 0 0 1-3-3.6q-1-2.3-1-7.5v-11H498v-8.7h4.4v-5.7zM527 57.6h12v8.2h-12zm0 12h12v31h-12zM545 85a15.6 15.6 0 0 1 5-11.6q4.7-4.6 13-4.6 9.2 0 14 5.4a15.7 15.7 0 0 1 4 10.8 15.6 15.6 0 0 1-5 11.7q-4.7 4.6-13 4.6-7.6 0-12.3-3.8A15.3 15.3 0 0 1 545 85zm12 0q0 4.3 1.8 6.3a5.5 5.5 0 0 0 8.4 0q1.7-2 1.7-6.3 0-4-1.8-6a5.2 5.2 0 0 0-4-2 5.4 5.4 0 0 0-4.4 2q-1.8 2-1.8 6zM586.6 69.5h11v5a16.5 16.5 0 0 1 5-4.4A13.3 13.3 0 0 1 609 69a10.2 10.2 0 0 1 7.6 3q2.8 3 2.8 9v19.8h-12v-17q0-3-1-4.3a4 4 0 0 0-3-1.2A4.3 4.3 0 0 0 600 80q-1.5 1.6-1.5 6v14.8h-12zM624.5 92l11.8-1.2a5.8 5.8 0 0 0 2 3 6 6 0 0 0 3.6 1 6 6 0 0 0 3.6-1 2.3 2.3 0 0 0 1-2 2.2 2.2 0 0 0-1.3-2 24.6 24.6 0 0 0-5.2-1.2 53.4 53.4 0 0 1-8.5-2 9 9 0 0 1-4-3 8 8 0 0 1-1.7-5 8.2 8.2 0 0 1 1.8-5.4 10.6 10.6 0 0 1 5-3.3 26.2 26.2 0 0 1 8.3-1.2 29 29 0 0 1 8 .8 10.7 10.7 0 0 1 4.6 2.7 13.8 13.8 0 0 1 3 4.8L645 78.3a4 4 0 0 0-1.5-2.2 6 6 0 0 0-3.4-1 4.8 4.8 0 0 0-3 .8 2 2 0 0 0-.8 1.8 2 2 0 0 0 1 1.7 19 19 0 0 0 5.2 1 35 35 0 0 1 9 2 9.8 9.8 0 0 1 4.3 3.3 8.4 8.4 0 0 1 1.6 5 9.6 9.6 0 0 1-1.7 5.2 11 11 0 0 1-5.2 4 24.6 24.6 0 0 1-9.5 1.5q-8.6 0-12.2-2.4a11 11 0 0 1-4.5-7z"/></g><g><path d="M0 86.4l12.6-.8a9.6 9.6 0 0 0 1.7 4.7 7 7 0 0 0 6 2.6 6.5 6.5 0 0 0 4.2-1.4 4 4 0 0 0 1.6-3 4 4 0 0 0-1.4-3Q23 84 18 83q-9-2-12.6-5.2a10.5 10.5 0 0 1-3.7-8.3 11.3 11.3 0 0 1 2-6.3 12.7 12.7 0 0 1 5.6-4.6Q13 57 20 57q8 0 12.4 3t5 9.7l-12.4.7a6.7 6.7 0 0 0-2-4.2 6.7 6.7 0 0 0-4.5-1.3 5.3 5.3 0 0 0-3.5 1 3 3 0 0 0-1 2.3 2.4 2.4 0 0 0 1 2q.8.7 4.3 1.4 8.7 2 12.5 3.8a13 13 0 0 1 5.4 4.8 12 12 0 0 1 1.8 6.4 13.6 13.6 0 0 1-2.3 7.6 14.3 14.3 0 0 1-6.4 5.3 25.8 25.8 0 0 1-10.4 1.7q-11 0-15.2-4.2A16.6 16.6 0 0 1 0 86.5zM45 57.6h12v22.2l9-10.3h14.6l-11 11 11.7 20H68l-6.4-12.4-4.5 4.5v8H45zM85.3 57.6h12v8.2h-12zm0 12h12v31h-12zM105 112.4v-43h11v4.7a14.8 14.8 0 0 1 4.3-3.8 12.2 12.2 0 0 1 5.8-1.4 11.2 11.2 0 0 1 9.7 4.8 19.8 19.8 0 0 1 3.4 11.8q0 7.7-3.6 11.8a12.2 12.2 0 0 1-9.4 4 13 13 0 0 1-5-.8 12 12 0 0 1-4-2.8v14.8zM117 85q0 3.8 1.5 5.6a5 5 0 0 0 4 1.8 4.3 4.3 0 0 0 3.4-1.7q1.3-1.7 1.3-5.8 0-4-1.5-5.7a4.5 4.5 0 0 0-3.6-1.7 4.8 4.8 0 0 0-3.8 1.7Q117 81 117 85zM145 112.4v-43h11v4.7a14.8 14.8 0 0 1 4.3-3.8 12.2 12.2 0 0 1 5.8-1.4 11.2 11.2 0 0 1 9.8 4.8 19.8 19.8 0 0 1 3.4 11.8q0 7.7-3.7 11.8a12.2 12.2 0 0 1-9.4 4 13 13 0 0 1-5-.8 12 12 0 0 1-4-2.8v14.8zM157 85q0 3.8 1.5 5.6a5 5 0 0 0 4 1.8 4.3 4.3 0 0 0 3.4-1.7q1.3-1.7 1.3-5.8 0-4-1.5-5.7a4.5 4.5 0 0 0-3.6-1.7 4.8 4.8 0 0 0-3.8 1.7Q157 81 157 85zM219.4 88h-24a7.7 7.7 0 0 0 1.7 4.3 5.7 5.7 0 0 0 4.6 2 6.8 6.8 0 0 0 3.3-1 8 8 0 0 0 2-2l11.8 1.2a16.8 16.8 0 0 1-6.5 6.7q-3.8 2-11 2-6 0-9.7-1.7a14.3 14.3 0 0 1-6-5.6 16.7 16.7 0 0 1-2.2-9 15.7 15.7 0 0 1 4.7-11.7q4.7-4.5 13-4.5 6.7 0 10.5 2a13.7 13.7 0 0 1 6 5.8 21.4 21.4 0 0 1 2 10zm-12-5.7q-.4-3.5-2-5a5.8 5.8 0 0 0-8.5.8 8.3 8.3 0 0 0-1.4 4.3zM225 69.5h11.2v5a12.2 12.2 0 0 1 3.3-4.5 7 7 0 0 1 4.3-1.2 12.6 12.6 0 0 1 5.7 1.6L246 79a9.4 9.4 0 0 0-3.5-1 4 4 0 0 0-3.6 2q-2 2.7-2 10.2v10.4h-12zM273 57.6H286v43H273zM295 69.5h11v5a16.5 16.5 0 0 1 5-4.4 13.3 13.3 0 0 1 6.2-1.2 10.2 10.2 0 0 1 7.7 3q2.7 3 2.7 9v19.8H316v-17q0-3-1.2-4.3a4 4 0 0 0-3-1.2 4.3 4.3 0 0 0-3.5 1.8q-1.4 1.6-1.4 6v14.8h-12zM335 69.5h11v5a16.5 16.5 0 0 1 5-4.4 13.3 13.3 0 0 1 6.2-1.2 10.2 10.2 0 0 1 7.8 3q2.8 3 2.8 9v19.8h-12v-17q0-3-1-4.3a4 4 0 0 0-3-1.2 4.3 4.3 0 0 0-3.5 1.8q-1.4 1.6-1.4 6v14.8h-12z"/></g></g></g><g id="lightbg"><g fill="#71fc53" filter="url(#Shadow_10)"><path d="M406 40.5l3.7.2a88.4 88.4 0 0 1 11 1c6.7 1.4 15.8 3 19 10 1.6 3.6 1.5 7.5.8 11.4a33.2 33.2 0 0 1-3 10.4c-4.5 8.5-12.7 13.8-19 20.7-3.4 4-6.7 8.2-7.4 13.4-.2 3.2.3 6.4 0 9.6a8.4 8.4 0 0 1-.4 2.3c-.6 1.3-3 2.2-4 3s-2.6 2.4-4 3c-2.4.8-5 .2-7.2 0a68 68 0 0 1-8.3-1 48.7 48.7 0 0 1-8-3c5.8 5.6 15.5 6.3 23 5.4 2.3-.3 4.6-1 7-1.3-4 5.4-11.3 7-17.6 6.6-2.6 0-5.2-.7-7.7-.5 1.2.4 2.4 1 3.7 1.3a57 57 0 0 0 11.2 1.5 24 24 0 0 0 4.5.2c2.3-.3 4-2 6.2-2.3-1.8 4.4-6.5 7-11 7.3s-10-1-14.8-1.2c4 3.7 7.8 5 13 5 1.2 0 3 .3 4 0 1-.5 1.4-1.4 2.2-2a48.6 48.6 0 0 1 6.4-3c-.2 5-4.2 7-8.3 8.6-1 .4-2.7.5-3.5 1.3-1.5 1.4-.3 4.4-1 6-.5.8-1.4 1-2 1.4-2 1-3.8 2.2-5.7 2.5l.5-4.8c0-.7-.2-1.8.3-2.5.8-1.3 3.2-2 4.5-2.6-4 0-8.2.3-12-1.3a18.8 18.8 0 0 1-5-3.4 11.7 11.7 0 0 1-3-4 40 40 0 0 1 4.8-2.4 25.8 25.8 0 0 0-6-2.4c1-2 4-3 5.5-4.8a11.4 11.4 0 0 1-6-3.7c-.4-.6-1.2-1.7-.7-2.5a3.7 3.7 0 0 1 1.5-1l4-2a5.7 5.7 0 0 1-1.8-.8c1.2-1.3 1.7-3 2-4.8 1.4-5.7-.4-10.2-2.5-15.4-3.8-9.6-7.5-19.7-7.8-30 0-3.6-.4-7 1.2-10.4 2.2-5 7-9 11.7-11.7a48.3 48.3 0 0 1 15-6.3c6.2-1 2.4-.6 11.3-1zM484.7 41.8a24.5 24.5 0 0 1 .8 5.6c-5.8.8-11.7 3-17.3 4.8-2 .7-4.2 1.8-6.4 2l-2-4.5c5-3 10.4-4.3 16-5.6 3-.7 6-1.6 9-2.2zM333.7 31.6a4.3 4.3 0 0 1 2.2 1.2c1.2 1 2.5 2 4 2.8 3.6 2.3 7.6 4 11.3 6.2 1.7 1 3 2.5 4.5 3.4-1 1.3-3 4-4.5 4.3-.8.2-1.5-.5-2-1l-4-2.4c-3.7-2-7.5-3.7-11-5.8-2.3-1.3-4.4-3-6.7-4.3v-.6l4-2.7c.6-.4 1.3-1 2-1zM430.2.3c1.4.5 4.5 1.2 5.3 2.5a2.8 2.8 0 0 1 0 2l-1 4c-1.7 5.7-3.2 11.6-5.6 17l-4-2c-.6-.2-1.3-.4-1.5-1s.2-1.3.4-1.8l1.5-4c1.2-3.7 2.4-7.4 3.4-11.2A57 57 0 0 1 430 .3zM378.4 0h.5c1.3.7 2.4 3.3 3.2 4.6 2.2 4 4.2 8.2 6 12.5.6 1.4 2.4 4.2 2 5.6-.3.6-1 1-1.5 1.2l-3.7 1.8c-2.8-5.3-4.5-11-7.3-16.2a21.7 21.7 0 0 0-4.4-6v-.7L377 .5a3.4 3.4 0 0 1 1.4-.5z"/></g><g><path d="M406 40.5l3.7.2a88.4 88.4 0 0 1 11 1c6.7 1.4 15.8 3 19 10 1.6 3.6 1.5 7.5.8 11.4a33.2 33.2 0 0 1-3 10.4c-4.5 8.5-12.7 13.8-19 20.7-3.4 4-6.7 8.2-7.4 13.4-.2 3.2.3 6.4 0 9.6a8.4 8.4 0 0 1-.4 2.3c-.6 1.3-3 2.2-4 3s-2.6 2.4-4 3c-2.4.8-5 .2-7.2 0a68 68 0 0 1-8.3-1 48.7 48.7 0 0 1-8-3c5.8 5.6 15.5 6.3 23 5.4 2.3-.3 4.6-1 7-1.3-4 5.4-11.3 7-17.6 6.6-2.6 0-5.2-.7-7.7-.5 1.2.4 2.4 1 3.7 1.3a57 57 0 0 0 11.2 1.5 24 24 0 0 0 4.5.2c2.3-.3 4-2 6.2-2.3-1.8 4.4-6.5 7-11 7.3s-10-1-14.8-1.2c4 3.7 7.8 5 13 5 1.2 0 3 .3 4 0 1-.5 1.4-1.4 2.2-2a48.6 48.6 0 0 1 6.4-3c-.2 5-4.2 7-8.3 8.6-1 .4-2.7.5-3.5 1.3-1.5 1.4-.3 4.4-1 6-.5.8-1.4 1-2 1.4-2 1-3.8 2.2-5.7 2.5l.5-4.8c0-.7-.2-1.8.3-2.5.8-1.3 3.2-2 4.5-2.6-4 0-8.2.3-12-1.3a18.8 18.8 0 0 1-5-3.4 11.7 11.7 0 0 1-3-4 40 40 0 0 1 4.8-2.4 25.8 25.8 0 0 0-6-2.4c1-2 4-3 5.5-4.8a11.4 11.4 0 0 1-6-3.7c-.4-.6-1.2-1.7-.7-2.5a3.7 3.7 0 0 1 1.5-1l4-2a5.7 5.7 0 0 1-1.8-.8c1.2-1.3 1.7-3 2-4.8 1.4-5.7-.4-10.2-2.5-15.4-3.8-9.6-7.5-19.7-7.8-30 0-3.6-.4-7 1.2-10.4 2.2-5 7-9 11.7-11.7a48.3 48.3 0 0 1 15-6.3c6.2-1 2.4-.6 11.3-1zM484.7 41.8a24.5 24.5 0 0 1 .8 5.6c-5.8.8-11.7 3-17.3 4.8-2 .7-4.2 1.8-6.4 2l-2-4.5c5-3 10.4-4.3 16-5.6 3-.7 6-1.6 9-2.2zM333.7 31.6a4.3 4.3 0 0 1 2.2 1.2c1.2 1 2.5 2 4 2.8 3.6 2.3 7.6 4 11.3 6.2 1.7 1 3 2.5 4.5 3.4-1 1.3-3 4-4.5 4.3-.8.2-1.5-.5-2-1l-4-2.4c-3.7-2-7.5-3.7-11-5.8-2.3-1.3-4.4-3-6.7-4.3v-.6l4-2.7c.6-.4 1.3-1 2-1zM430.2.3c1.4.5 4.5 1.2 5.3 2.5a2.8 2.8 0 0 1 0 2l-1 4c-1.7 5.7-3.2 11.6-5.6 17l-4-2c-.6-.2-1.3-.4-1.5-1s.2-1.3.4-1.8l1.5-4c1.2-3.7 2.4-7.4 3.4-11.2A57 57 0 0 1 430 .3zM378.4 0h.5c1.3.7 2.4 3.3 3.2 4.6 2.2 4 4.2 8.2 6 12.5.6 1.4 2.4 4.2 2 5.6-.3.6-1 1-1.5 1.2l-3.7 1.8c-2.8-5.3-4.5-11-7.3-16.2a21.7 21.7 0 0 0-4.4-6v-.7L377 .5a3.4 3.4 0 0 1 1.4-.5z"/></g></g><g id="lightfg"><path fill="#71fc53" d="M383.7 116c3 1 5.8 2.4 8.8 3.2a43.8 43.8 0 0 0 11 1.3c.3-3.6-.3-7.2.2-10.7a16.6 16.6 0 0 1 2.8-7c8.2-12.7 24.4-19.7 26.7-36a32.4 32.4 0 0 0 .5-5.6 13 13 0 0 0-3.8-9c-3-2.6-7.5-3.8-11.3-4.8a62.5 62.5 0 0 0-28.4-1c-2.7.6-6 1-8.5 2.4a18.6 18.6 0 0 0-5.7 6c-2.8 4.6-2.3 10.6-1.7 15.7a82 82 0 0 0 5.2 19.7c2 5 4.5 9.7 5.5 15 .8 3.4-.8 7.2-1.3 10.7z"/><g opacity=".4"><path fill="#fdfdfd" d="M415.7 56.6c2.3-.3 3.5 1 4.2 3v.2l-5 2c-1 0-1-1-1-1.6a9 9 0 0 1 1-3c0-.4.2-.7.7-.6z"/><path fill="#696969" d="M394.5 59l1-3.3 4-.6c1 0 1.2 1 1.5 1.5a2 2 0 0 1 .3 1 21.4 21.4 0 0 1-.7 3.3 1.4 1.4 0 0 1-1 1 9 9 0 0 1-4-.7c-.7-.4-1.5-1-1-2z"/><path fill="#f8f8f8" d="M400.8 57.5c0-1-1-1.6-1.2-2.4l1-2.6A2 2 0 0 1 403 51a2.3 2.3 0 0 1 2.2 1.7l1 3.5c0 .5 0 1-.6 1a38.7 38.7 0 0 1-5 .3z"/><path fill="#fafafa" d="M391.6 70.6a13.5 13.5 0 0 0-.7-1.6c-1-1.4-1.5-2.7-.5-4.3a6 6 0 0 1 3.8-.5c1 .3 1.4 1.2 2 2a2.2 2.2 0 0 1 0 1.2 6 6 0 0 0-.3 3c0 .2 0 .3-.2.4-.4.4-1 .3-1.4.4-1 0-2 .2-2.8-.6zM407.3 80.3l-.5.3c-2.4 1.6-3.4 1.5-5.7-.5-1-1 0-2 0-3a1 1 0 0 1 .7-1c.7 0 1.4-.7 2.3-.6a4 4 0 0 1 3 1.7 21.2 21.2 0 0 1 .5 2.2c0 .4.2.8-.2 1z"/><path fill="#e6e6e6" d="M410.8 66.5l-.4 3.2a2 2 0 0 1-1.5 1.8 5.5 5.5 0 0 1-3.5-.4 6 6 0 0 1-1-2 15.8 15.8 0 0 1-.6-2.7 3 3 0 0 1 2-1.8 19 19 0 0 1 4.5 1.5.5.5 0 0 1 .3.5z"/><path fill="#878787" d="M407.3 80.3l-1-3a1.3 1.3 0 0 1 .6-1.6 10.4 10.4 0 0 1 2.4-1.7 3.8 3.8 0 0 1 2.8 2 12.7 12.7 0 0 1-.3 3.8.7.7 0 0 1-.5.5 4.6 4.6 0 0 1-4.2 0z"/><path fill="#cbcbcb" d="M394.4 64.5l-4 .2c0-1-.2-2-.5-2.8-.6-1.6 0-2 1.4-2.3a10 10 0 0 0 3-.6l1.2 1.8a1 1 0 0 1 .2.8 13 13 0 0 1-.8 2.5c0 .4-.3.4-.6.5z"/><path fill="#fdfdfd" d="M400.8 57.5c1.2-1 2.7-.4 4-.7.6 0 1 0 1.2-.6l.2.6c.7.8.6 1.8.7 2.8a4.5 4.5 0 0 1-.3 1A1.8 1.8 0 0 1 405 62c-1.3 0-2.5-.4-3.7-.7-.4 0-.8 0-1-.6z"/><path fill="#8e8e8e" d="M411.5 80.3l.4-4.4a1.7 1.7 0 0 1 2.4-1l2.3 4.4c.2.3.8.8.2 1.2s-1.2 1.5-2.3 1l-3.2-1.3z"/><path fill="#f6f6f6" d="M405 61.5a1.5 1.5 0 0 0 1.4-1 1.3 1.3 0 0 1 1.4-.3h1.5a1.5 1.5 0 0 1 .8.8 39.8 39.8 0 0 1 2 4 1.2 1.2 0 0 1 0 .5l-1.3 1-4.8-1.8c-.3 0-.5-.2-.5-.4a25.4 25.4 0 0 1-.6-2.8z"/><path fill="#f7f7f7" d="M414.3 75l-2.4 1-2.5-1.7a3 3 0 0 1-.4-3l1.4-1.6c1 .4 1.8 1 2.7 1.3 2.3 1 2.5 1.8 1.3 4z"/><path fill="#b2b2b2" d="M390.7 79c.7.5 1.6 4 1.2 4.8-.7 1.2-3.3 1-5.5-.4-1.7-1 .3-1.8.4-2.7a4 4 0 0 1 3.7-1.6z"/><path fill="#eaeaea" d="M391.6 70.6l3 .2a1.2 1.2 0 0 1 .5 1l.4 2.2c0 .4 0 .7-.4.8l-4.5 1.7c-.4.2-.6 0-.8-.3a3.3 3.3 0 0 1-.7-1.6c.8-1.4 1-3 2.6-4z"/><path fill="#7f7f7f" d="M395 74.8l-.5-4a2 2 0 0 1 1.3-.2.7.7 0 0 1 .6-.3 6.2 6.2 0 0 1 3.2.7 11.8 11.8 0 0 1 .8 4.2.7.7 0 0 1-.5.6h-3a1.8 1.8 0 0 1-2-1z"/><path fill="#cecece" d="M389 74.6c.8.4 1 1.3 1.5 2l.2 2.5-3.8 1.7c-.6-1.3-1-2.7-1.8-4-.5-1 0-1.4 1-1.5s1.8-.4 2.8-.6z"/><path fill="#f7f7f7" d="M400 76l-.6-4.8c0-.7.4-1 1-1.2 1.3.4 2.6 1 4 1.3a1 1 0 0 1 .6.4 14.8 14.8 0 0 1-.4 3.4c0 .4-.4.6-.6.7l-3 1.2z"/><path fill="#ececec" d="M412 65.5c-1.2-1.4-1.6-3.2-2.5-4.7-.3-.6.2-.7.5-1a3.2 3.2 0 0 1 1.6-.8c1 0 2 0 2.6 1.2l.7 1.5a3.7 3.7 0 0 1-3 3.8z"/><path fill="#fcfcfc" d="M405.4 87c.4-1.4 2.3-.7 3.5-1a1 1 0 0 1 1.4 1c.2 1.6-1 4-1.8 4-2.2.2-3-.7-3.2-4zM410.6 55.3c0-4 0-4 4-4.5 1-.2 1 0 1 1l-.4 4a5.3 5.3 0 0 1-4.6-.5z"/><path fill="#a7a7a7" d="M392.2 55.3c-1.6 0-3 0-3-2.3 0-1.3.7-1.8 1.8-1.8 3.3-.5 3.7 2 4.2 4 0 .3 0 .4-.3.3-1-.3-2 0-2.8-.2z"/><path fill="#f7f7f7" d="M411.5 59.3l-2 1.5-3-.2-.2-3.8 4-1c1 .5 1.7 2.6 1.2 3.5z"/><path fill="#4f4f4f" d="M411.5 59.3l-1.3-3.6.4-.4 4.5.4.7 1-1.5 3.5z"/><path fill="#e2e2e2" d="M392.2 55.3h3l.2.4z"/><path fill="#979797" d="M405 61.5c1.3.8.4 2.2 1 3.2l-2 1.5c-.6 1-1.6.7-2.6.7a4 4 0 0 1-2-2c0-1.2-.6-2.4 0-3.6l1-.7z"/><path fill="#fdfdfd" d="M399.4 61.4a12.8 12.8 0 0 1 .4 3.7.6.6 0 0 1-.3.8 11.2 11.2 0 0 1-3 1c-.2 0-.4-.3-.5-.5l-1.6-1.8 1.2-3.7z"/><path fill="#fcfcfc" d="M396 66.3a8.2 8.2 0 0 0 3.8-1.2l1.5 1.6c.2.3.4.5.3.8a15 15 0 0 1-.7 2.5l-.6.3-1 1-3.6-.6c-.6-.2-.7-.6-.6-1.2.4-1 .6-2.2.8-3.2z"/><path fill="#f4f4f4" d="M404 75.7l.7-4c0-.7.4-.8 1-1l3.4.4.5 3.3c-1 1-2.5 1.5-3 3-.6-1-1.6-1.2-2.6-1.6z"/><path fill="#f8f8f8" d="M405.7 70.8c-.2.5-.6.7-1 1a10.5 10.5 0 0 1-4.3-1.5l1-3.7 2.8-.3a22 22 0 0 1 1.5 4.5z"/></g></g></svg>
